<?xml version="1.0" encoding="utf-8"?>
<!-- Generator: Adobe Illustrator 27.9.5, SVG Export Plug-In . SVG Version: 9.03 Build 54986)  -->
<svg version="1.1" id="Calque_1" xmlns="http://www.w3.org/2000/svg" xmlns:xlink="http://www.w3.org/1999/xlink" x="0px" y="0px"
	 viewBox="0 0 3076.8 286.1" style="enable-background:new 0 0 3076.8 286.1;" xml:space="preserve">
<style type="text/css">
	.st0{fill:#FFFFFF;}
</style>
<path class="st0" d="M3073.1,215.2c-6.2-8.9-19.4-12.2-29.1-7.2c3-11.9-0.9-25.4-9.9-33.8c-1.5-1.3-3.1-2.5-4.8-3.5
	c-2.6-1.7-5.5-3-8.5-4c0,0,0,0,0,0c-0.1,0-0.2-0.1-0.4-0.1c-0.6-0.2-1.2-0.4-1.7-0.5c-3.1-0.8-6.3-1.1-9.5-1
	c-3.2,0.1-6.4,0.6-9.4,1.6c0.1-0.6,0.1-1.1,0.2-1.7c0-0.1,0-0.1,0-0.2c0-0.5,0.1-1,0.1-1.6c0-0.1,0-0.1,0-0.2c0-0.5,0.1-1.1,0.1-1.6
	c0,0,0-0.1,0-0.1c0-0.6,0-1.1,0-1.7c0,0,0,0,0,0c0-17.6-8.6-34.8-21.5-45c-0.2-0.2-0.5-0.4-0.7-0.5c-0.2-0.1-0.3-0.3-0.5-0.4
	c-0.3-0.2-0.6-0.5-0.9-0.7c-0.1-0.1-0.2-0.1-0.2-0.2c-0.4-0.3-0.7-0.5-1.1-0.8c0,0,0,0,0,0c-7.7-5-16.8-7.7-26.4-6.7
	c-0.2,0-0.3,0-0.5,0.1c-0.2,0-0.5,0.1-0.7,0.1c-1.7,0.2-3.5,0.5-5.2,1c0,0,0,0,0,0c-4,1-8,2.7-12,5.1c-2.6-16.9-11-33.6-25.2-43.1
	c0,0,0,0,0,0c-14.2-9.6-34.7-10.5-48,0.3c-0.4-18.6-12.2-35.8-28-45.6c-15.8-9.8-35.1-12.7-53.7-11.4c-20.4,1.5-40.7,9.3-56,23.1
	c-17.7,15.9-21,36.9-19.8,60c0,0.4,0,0.8,0.1,1.3c-9.7-1.9-19.9-2.5-29.3,0.4c-5.9,1.8-10.7,5-14.5,9.1
	c-13.9,14.6-15.7,41-10.5,59.3c-16.9-3.5-34.8-6.3-51.1-0.5c-5.6,2-10.9,5.5-15.2,9.8c-4,4-7.1,8.7-8.9,13.7
	c-4.3-2.6-9.3-4.3-14.2-5c-10.5-1.5-21.1,0.7-31.5,2.8c-1.9-14.7-13.8-26.8-27.8-31.7c-14-4.9-29.5-3.6-43.7,0.6
	c-4.2-27.6-26.2-51.6-53.3-58.2c-27.1-6.6-57.7,4.7-74,27.4c-17.2-20.9-47.2-31.5-72.9-23c-36.2,11.4-39.2,47.1-38.9,78.7
	c0,0,0,0,0,0c-12.4-14.4-30.4-25.4-47.3-9.4c-2.3,2.2-4.1,4.8-5.6,7.6c-9.8-4.3-20.9-5.7-31.7-6c-16-0.4-32.2,1.3-47.8,5
	c-0.1,0-0.1,0-0.2,0c-5.2,1.3-10.2,2.7-15.2,4.4c24.3-13.6,37.2-40.3,37.2-66.3c0-24.7-11.6-48.9-35.9-61.2
	c-3.8-1.9-8.7-4.5-13.6-6.4c0,0,0,0.1,0.1,0.1c-3-1.2-6-2.2-8.7-2.6c-3.5-0.5-26.2,2.4-26,7.5c-0.8-17.4-13.8-32.2-28.8-41.1
	c-37.7-22.2-91.6-10.5-116.7,25.3c-6.4,9.2-10.8,19.6-13.1,30.4c0-0.1,0-0.2-0.1-0.3c-3.9,18-2.2,37.3,4.6,54.5
	c-1.5-0.2-2.9-0.4-4.4-0.4c-6.2,0-12.4,1.9-17.3,5.7c0.7-9.1-1.5-18.2-5.9-26.2c-5.3-9.8-13.9-17.9-24.3-22
	c-18.9-7.5-42.3-1.3-55,14.6c-9.2-31.1-39.2-55.8-71.6-55.6c-32.4,0.1-63.4,27.5-64.6,59.9c-8.8-11.6-25.5-13.1-40.1-12.5
	c-14.5,0.5-30,2.4-41.1,11.8c-0.9,0.7-1.7,1.5-2.5,2.3c-0.8-0.8-1.6-1.6-2.5-2.3c-11.1-9.4-26.6-11.3-41.1-11.8
	c-14.6-0.6-31.3,0.9-40.1,12.5c-1.2-32.4-32.2-59.8-64.6-59.9c-32.4-0.2-62.4,24.5-71.6,55.6c-12.7-15.9-36.1-22.1-55-14.6
	c-10.4,4.1-19,12.2-24.4,22c-4.3,8-6.6,17.1-5.8,26.1c0,0,0,0,0,0c-4.9-3.8-11.1-5.7-17.3-5.7c-1.5,0-3,0.1-4.4,0.4
	c6.8-17.2,8.5-36.5,4.6-54.5c0,0.1,0,0.2,0,0.3c-2.3-10.9-6.6-21.3-13.1-30.4c-25.1-35.8-79-47.5-116.7-25.3
	c-15,8.9-28,23.7-28.8,41.1c0.2-5.1-22.5-8-26-7.5c-2.6,0.4-5.6,1.4-8.7,2.6c0,0,0-0.1,0.1-0.1c-4.9,1.9-9.8,4.5-13.6,6.4
	c-24.3,12.4-35.9,36.6-35.9,61.2c0,26.1,12.9,52.7,37.2,66.4c-5-1.6-10-3.1-15.2-4.4c-0.1,0-0.1,0-0.2,0c-15.6-3.8-31.8-5.5-47.8-5
	c-10.8,0.3-21.9,1.7-31.7,6c-1.4-2.8-3.3-5.4-5.6-7.6c-16.9-16-34.9-5-47.3,9.4c0,0,0,0,0,0c0.3-31.6-2.7-67.3-38.9-78.7
	c-25.7-8.5-55.7,2.1-72.9,23c-16.3-22.7-46.9-34-74-27.4c-27.1,6.6-49.1,30.6-53.3,58.2c-14.2-4.2-29.7-5.5-43.7-0.6
	c-14,4.9-25.9,17-27.8,31.7c-10.4-2.1-21-4.3-31.5-2.8c-5,0.7-9.9,2.4-14.2,5c-3.7-10.5-13.2-19.6-24-23.5
	c-16.3-5.8-34.3-3-51.2,0.5c1.7-5.8,2.6-12.5,2.7-19.3c0.2-20.6-7.5-42.8-27.6-49.1c-9.4-2.9-19.6-2.3-29.3-0.4
	c1.4-23.6-1.7-45.1-19.7-61.3c-15.3-13.8-35.6-21.6-56-23.1c-18.6-1.3-37.9,1.6-53.7,11.4c-15.8,9.8-27.6,27-28,45.6
	c-6.7-5.4-15.1-7.9-23.7-7.8c-8.6,0.1-17.3,2.7-24.4,7.5c-14.2,9.5-22.6,26.2-25.2,43c-4-2.4-8.1-4-12-5c0,0,0,0,0,0
	c-0.6-0.2-1.2-0.3-1.8-0.4c-0.2,0-0.5-0.1-0.7-0.1c-0.3,0-0.5-0.1-0.8-0.1c-0.5-0.1-0.9-0.1-1.4-0.2c0,0,0,0,0,0
	c-10.2-1.4-19.8,1.2-28,6.5c0,0,0,0,0,0c-0.4,0.2-0.7,0.5-1.1,0.8c-0.1,0.1-0.2,0.1-0.2,0.2c-0.3,0.2-0.6,0.4-0.9,0.7
	c-0.2,0.1-0.3,0.3-0.5,0.4c-0.2,0.2-0.5,0.3-0.7,0.5c-13,10.2-21.5,27.4-21.5,45c0,0,0,0,0,0c0,0.3,0,0.5,0,0.8c0,0.3,0,0.6,0,0.9
	c0,0,0,0.1,0,0.1c0,0.5,0,1.1,0.1,1.6c0,0.1,0,0.1,0,0.2c0,0.5,0.1,1,0.1,1.6c0,0.1,0,0.1,0,0.2c0.1,0.6,0.1,1.2,0.2,1.7
	c-6.1-2-12.8-2.1-19-0.6c-4.3,1.1-8.5,2.9-12.1,5.6c-1.1,0.8-2.2,1.6-3.3,2.5c-6.8,6.3-10.7,15.5-10.9,24.8c-0.1,3,0.2,6.1,1,9
	c-9.7-5-22.9-1.7-29.1,7.2c-0.4,0.6-0.8,1.3-1.2,1.9c-4.9,8.9-3.1,21.2,4.5,28.1c10.5,9.5,27.2,7.2,40.4,2
	c31.9,30.4,86.8,32.4,120.8,4.4c35.1,30.9,92.6,32.1,129.1,2.9c0,0-0.1,0-0.1,0c0.1,0,0.1-0.1,0.2-0.1c10.5,14.4,25.5,26,42.8,30.3
	c16.1,3.9,31.5-1.3,46.7-6.3c3.4-1.1,37.3-20.3,37.4-25.8c0-0.2,0-0.3-0.1-0.5c18.7,16.7,43.8,25.8,68.8,25.8c7.1,0,14.1-0.7,21-2.3
	c18.3-4,35.8-13.6,46.7-28.8c2-2.8,3.7-5.8,5-9c12.7,13.1,30.1,21.7,48.2,23.6c2.6,0.3,5.2,0.4,7.9,0.4c18.3,0.1,36.6-6.4,50.7-18
	c16.6,18.6,41.1,29.7,66,30c0.8,0,1.6,0,2.4,0l3.2,1c-0.8-0.3-1.6-0.7-2.3-1c25.4-0.7,50.1-12.7,66.4-32.3
	c11.5,8.9,32.7,19,51.2,19.3c9.4,0.2,18.1-2.1,24.5-8.3c0.2,0,0.5,0.1,0.7,0.1c41.9,6.1,85.1,3.6,126-7.5
	c8.8,9.6,22.8,13.6,35.8,12.2c13-1.4,25.1-7.7,35.4-15.8c0,0.4-0.1,0.8-0.1,1.1c0,0,0,0,0,0c-0.2,6.5,4.8,12.5,10.9,15.2
	c0,0,0,0,0,0c6.4,2.9,13.7,2.9,20.8,2.9l0,0c0,0,0,0,0,0c70.2-0.3,140.3-0.7,210.5-1c3.1,0,6.2,0,9.3-0.1
	c8.6,5.7,18.3,9.5,28.5,10.9c20.5,2.6,42-5,56.7-19.5c2.7-2.6,5.2-5.5,7.4-8.6c18.9,18.7,48,25.5,73.8,19.3
	c14.3-3.4,27.5-10.5,38.7-19.9c11.2,9.4,24.4,16.5,38.7,19.9c25.8,6.2,54.9-0.6,73.8-19.3c14.2,20,39.8,31.2,64.1,28.1
	c10.2-1.3,20-5.2,28.5-10.9c3.1,0,6.2,0.1,9.3,0.1c70.2,0.3,140.3,0.7,210.5,1c0,0,0,0,0,0l0,0c7.1,0,14.4,0,20.8-2.9c0,0,0,0,0,0
	c6.1-2.7,11.1-8.7,10.9-15.2c0,0,0,0,0,0c0-0.4,0-0.8-0.1-1.1c10.3,8.1,22.4,14.4,35.4,15.8c13,1.4,27-2.6,35.8-12.2
	c40.9,11.1,84.1,13.6,126,7.5c0.2,0,0.5-0.1,0.7-0.1c6.4,6.2,15.1,8.5,24.5,8.3c18.5-0.4,39.7-10.4,51.2-19.3
	c16.3,19.6,41.1,31.6,66.4,32.3c-0.8,0.3-1.6,0.7-2.3,1l3.2-1c0.8,0,1.6,0,2.4,0c24.9-0.3,49.5-11.4,66-30
	c14.1,11.6,32.4,18,50.7,18c2.6,0,5.3-0.1,7.9-0.4c18.1-1.9,35.5-10.5,48.2-23.6c1.3,3.2,3,6.2,5,9c10.9,15.2,28.4,24.8,46.7,28.8
	c6.9,1.5,14,2.3,21,2.3c25,0,50.1-9.2,68.8-25.9c-2.7,4.6,33.7,25.2,37.2,26.4c15.2,5,30.6,10.2,46.7,6.3c4.2-1.1,8.3-2.5,12.2-4.4
	c12.1-5.7,22.6-15,30.6-25.9c0.1,0,0.1,0.1,0.2,0.1c0,0-0.1,0-0.1,0c36.5,29.2,94,28,129.1-2.9c34,28,88.9,26,120.8-4.4
	c13.2,5.2,29.9,7.5,40.4-2c4.6-4.1,7.1-10.3,7.2-16.5C3077.1,224,3075.8,219.1,3073.1,215.2z M1233.3,202.9
	c-1.3,0.5-2.6,1.2-3.9,1.9c1.1-1.7,2-3.4,2.8-5.2C1232.6,200.7,1232.9,201.8,1233.3,202.9z M1844.5,199.5c0.8,1.8,1.7,3.6,2.8,5.2
	c-1.3-0.7-2.6-1.3-3.9-1.9C1843.9,201.8,1844.2,200.7,1844.5,199.5z M808.3,241.5L808.3,241.5L808.3,241.5
	C808.3,241.5,808.3,241.5,808.3,241.5z"/>
</svg>
