<?xml version="1.0" encoding="utf-8"?>
<!-- Generator: Adobe Illustrator 27.9.5, SVG Export Plug-In . SVG Version: 9.03 Build 54986)  -->
<svg version="1.1" id="Calque_1" xmlns="http://www.w3.org/2000/svg" xmlns:xlink="http://www.w3.org/1999/xlink" x="0px" y="0px"
	 viewBox="0 0 71.7 201.1" style="enable-background:new 0 0 71.7 201.1;" xml:space="preserve">
<style type="text/css">
	.st0{fill:#E0E0E0;}
</style>
<path class="st0" d="M71.5,163.8c0.2-0.4,0.2-0.7,0.1-1.1c0-6.6-0.4-13.3-0.8-19.9c-0.4-7.6-0.9-15.3-1.3-22.9
	c-0.1-2.8-0.3-5.5-0.3-8.3c0-0.6-0.2-1-0.5-1.3c0,0,0,0,0,0c-3.5-3.9-7.5-7.4-11.6-10.7c-4.5-3.7-9.2-7.2-14.2-10.2
	c0.3,0,0.5,0,0.8,0.1c2.4,0.2,4.8,0.4,7.1,0.7c4.7,0.4,9.5,0.7,14.2,0.2c1-0.1,1.9-0.8,1.9-1.9c0-0.2,0-0.4-0.1-0.6
	c0.1-0.3,0.1-0.7,0-1.1c-0.5-2.8-0.7-5.8-0.8-8.9C66,74,66,70.3,66,66.7c0-7.6,0.1-15.2-1-22.8c-0.5-3.6-1.4-7.1-3-10.3
	c-2.9-5.1-6.6-9.8-10.5-14.2c-4.3-5-8.9-9.7-13.9-13.9c-2.4-2-4.9-3.8-7.6-5.3c-1-0.5-2.1-0.2-2.7,0.7C19.7,12.7,9.3,22.2,0.6,33.2
	c0,0,0,0,0,0C0.2,33.5,0,34,0,34.6c0,14.3,0.9,28.6,1.7,42.9c0.2,4,0.4,8,0.6,12.1c0,0,0,0,0,0.1c0,0.5,0.2,1,0.6,1.3
	c8.9,7.3,18.6,13.4,27.9,20.1c0.5,0.3,1,0.7,1.4,1c-8.9-0.3-17.9-1-26.8-1c-0.6,0-1,0.2-1.3,0.5c-0.4,0.3-0.6,0.8-0.6,1.4
	c0,13.2,0.7,26.3,1,39.5c0.1,3.1,0.1,6.2,0.1,9.3c0,0.2,0,0.4,0,0.6c0,0,0,0.1,0,0.1c0,0,0,0.1,0,0.1c0.1,0.2,0.1,0.4,0.3,0.5
	c3.3,5.6,6.5,11.1,10.2,16.5c4,5.9,8.4,11.9,13.9,16.6c2.3,1.9,4.8,3.6,7.7,4.5c3,0.9,5.7,0.3,8.6-0.9c6.9-3,11.9-9.1,15.7-15.5
	c3.8-6.4,6.4-13.6,10.3-20C71.4,164.1,71.5,164,71.5,163.8z M59.3,179.3c-3.2,6-7.2,12-13.2,15.6c-1.5,0.9-2.9,1.6-4.5,2.1
	c-0.2,0.1-0.5,0.1-0.7,0.2c0,0-0.2,0-0.2,0c-0.1,0-0.2,0-0.3,0c-0.2,0-0.5,0-0.7,0c-0.1,0-0.6-0.1-0.7-0.1c-0.5-0.1-1-0.2-1.5-0.4
	c-0.3-0.1-0.5-0.2-0.8-0.3c0,0,0,0-0.1,0c0,0,0,0-0.1,0c-0.2-0.1-0.3-0.1-0.5-0.2c-1.2-0.6-2.3-1.3-3.4-2.1c-0.3-0.2-1-0.8-1.5-1.2
	c-0.6-0.5-1.2-1.1-1.7-1.6c-1.2-1.2-2.4-2.5-3.5-3.8c-2.3-2.7-4.4-5.5-6.4-8.4c-3.9-5.7-7.5-11.7-11-17.7c0-12.6-0.7-25.2-1-37.8
	c-0.1-2.9-0.1-5.8-0.1-8.8c9.6,0.1,19.2,1,28.8,1.1c0.1,11.9,1.1,23.7,1.3,35.5c0,3.1,0,6.2-0.2,9.3c-0.1,2.5,3.8,2.5,3.9,0
	c0.6-12-0.5-24-0.9-35.9c-0.1-3.6-0.2-7.2-0.2-10.8c0-0.1,0-0.1,0-0.2c0-0.5-0.2-0.9-0.6-1.2c0,0,0,0,0,0c0,0,0,0,0,0
	c-0.1-0.1-0.2-0.2-0.3-0.2C31,105.7,21.9,100.2,13.3,94c-2.4-1.8-4.8-3.6-7.1-5.5C5.5,74.6,4.5,60.7,4.1,46.7
	C4,42.9,3.9,39,3.9,35.2c8.4-10.4,18.2-19.7,25.8-30.7c4.2,2.5,7.9,6,11.5,9.4c4.5,4.4,8.8,9.2,12.6,14.3c1.8,2.4,3.5,4.8,4.9,7.4
	c0.6,1.2,1,2.4,1.4,3.9c0.4,1.6,0.8,3.2,1,4.8c0.5,3.4,0.8,6.9,0.9,10.3c0.3,7.5,0,14.9,0.2,22.4c0.1,3.2,0.3,6.4,0.8,9.6
	c-5.7,0.4-11.4-0.3-17.1-0.8c-1.6-0.1-3.2-0.3-4.7-0.4c-0.8-0.1-1.7-0.1-2.5-0.1c-0.7,0-1.6-0.2-2.3,0c-0.1,0-0.1,0-0.2,0.1
	c-1.7-5.9-2.7-12-3.2-18.1c-0.6-7.2-0.8-14.4-0.6-21.6c0.1-3.7,0.4-7.4,0.7-11c0.1-1-1-1.9-1.9-1.9c-1.1,0-1.8,0.9-1.9,1.9
	c-1.4,14-1.2,28.5,1.1,42.5c0.6,3.6,1.4,7.2,2.5,10.7c0,0,0,0,0,0.1c0.1,0.5,0.4,0.9,0.9,1.1c4.7,2,9,4.8,13.1,7.7
	c4.7,3.3,9.2,6.9,13.4,10.7c1.8,1.7,3.6,3.4,5.3,5.2c0,5.7,0.5,11.3,0.8,17c0.4,7.9,0.9,15.7,1.3,23.6c0.1,3.2,0.3,6.3,0.3,9.5
	C64.5,167.9,62.3,173.8,59.3,179.3z"/>
</svg>
