<?xml version="1.0" encoding="utf-8"?>
<!-- Generator: Adobe Illustrator 27.9.5, SVG Export Plug-In . SVG Version: 9.03 Build 54986)  -->
<svg version="1.1" id="Calque_1" xmlns="http://www.w3.org/2000/svg" xmlns:xlink="http://www.w3.org/1999/xlink" x="0px" y="0px"
	 viewBox="0 0 3840 182.8" style="enable-background:new 0 0 3840 182.8;" xml:space="preserve">
<style type="text/css">
	.st0{fill:#D83071;}
</style>
<g>
	<path class="st0" d="M3772,31.5L3772,31.5c-44.6,5.9-88.6,18.7-133.7,18.7c-60.3-0.1-118.2-23.2-178.2-29.7
		c-78.4-8.5-157.5,11.6-236.3,6.8c-74.6-4.5-147.5-31.2-222.1-26.8c-59,3.5-115.4,26.5-174.3,30.8c-87.1,6.4-172.5-28.3-259.8-27.4
		c-69.2,0.7-136.4,23.6-205.5,27.5c-108,6-217.4-34.6-323-10.9c-39.6,8.9-79.9,26.6-119.2,28.3c-39.3-1.7-79.7-19.5-119.2-28.3
		c-105.5-23.7-215,17-323,10.9c-69.1-3.9-136.3-26.8-205.5-27.5c-87.3-0.8-172.8,33.8-259.8,27.4C953.6,27,897.2,4.1,838.2,0.5
		C763.6-4,690.7,22.8,616.1,27.3c-78.8,4.8-157.8-15.3-236.3-6.8C319.9,26.9,262,50,201.7,50.1c-45,0.1-89-12.7-133.7-18.7h0
		c-22.2-3-45.5-4.1-68-1.1v152.5h1920h1920V30.3C3817.5,27.3,3794.2,28.5,3772,31.5z"/>
</g>
</svg>
