<?xml version="1.0" encoding="utf-8"?>
<!-- Generator: Adobe Illustrator 27.9.5, SVG Export Plug-In . SVG Version: 9.03 Build 54986)  -->
<svg version="1.1" id="Calque_1" xmlns="http://www.w3.org/2000/svg" xmlns:xlink="http://www.w3.org/1999/xlink" x="0px" y="0px"
	 viewBox="0 0 297.5 115.9" style="enable-background:new 0 0 297.5 115.9;" xml:space="preserve">
<style type="text/css">
	.st0{fill:#FFFFFF;}
</style>
<g>
	<path class="st0" d="M37.5,48c0.4-2-0.6-3.4-2.4-4.1c-8.2-3.3-17.4-4.1-26-2.3c2.7-12.6,4.5-25.4,5.6-38.2C15,1.6,13.2-0.1,11.5,0
		c-2,0.1-3.2,1.5-3.4,3.4c-1.2,14.2-3.4,28.1-6.6,42c-0.5,2.3,1.6,5,4.1,4.1c9.2-3.2,18.7-2.9,27.8,0.8C35,51,37.2,49.6,37.5,48z"/>
	<path class="st0" d="M39.6,46c0.3,1.2,1.3,2.1,2.5,2.4c0.4,0.8,1.1,1.4,2.1,1.7c6.3,2,13.2,1.9,19.4-0.2c1.7-0.6,2.9-2.3,2.4-4.1
		c-0.5-1.6-2.4-3-4.1-2.4c-1.4,0.5-2.8,0.9-4.3,1.1c-0.2,0-0.5,0.1-0.7,0.1c0,0-0.8,0.1-0.9,0.1c-0.7,0.1-1.4,0.1-2,0.1
		c-0.7,0-1.4,0-2,0c-0.4,0-0.8-0.1-1.3-0.1c-0.1,0-0.3,0-0.5-0.1c-1.4-0.2-2.8-0.6-4.1-1c0,0,0,0,0,0c-0.4-1.5-0.7-3-1.1-4.5
		c3.5-0.5,7.1-1,10.6-1.5c0.8-0.1,1.6-0.9,2-1.5c0.4-0.7,0.6-1.8,0.3-2.6c-0.3-0.8-0.8-1.6-1.5-2c-0.9-0.5-1.6-0.5-2.6-0.3
		c-3.5,0.5-6.9,1-10.4,1.4c-0.1-0.4-0.2-0.8-0.3-1.2c-0.2-1-0.5-2-0.7-3c-0.1-0.5-0.3-1-0.4-1.6c0-0.2-0.1-0.2-0.1-0.3
		c0,0,0-0.1,0-0.2c0,0,0,0,0,0c0.1-0.1,0.3-0.2,0.4-0.2c0.6-0.4,1.3-0.7,1.9-1c0.4-0.2,0.8-0.4,1.1-0.5c0.1,0,0.4-0.2,0.5-0.2
		c0.7-0.3,1.5-0.6,2.2-0.8c0.7-0.2,1.4-0.4,2.1-0.6c0.3-0.1,0.7-0.1,1-0.2c0.1,0,0.4-0.1,0.5-0.1c0.8-0.1,1.5,0,2.3,0
		c0.1,0,0.1,0,0.1,0c0,0,0.1,0,0.1,0c0.4,0.1,0.7,0.2,1.1,0.3c0.1,0,0.2,0.1,0.3,0.1c0,0,0,0,0,0c0.2,0.2,0.6,0.3,0.8,0.5
		c0,0,0,0,0,0c0.1,0.1,0.2,0.2,0.4,0.3c0.3,0.3,0.5,0.6,0.8,0.9c1.1,1.4,3.6,1.2,4.8,0c1.4-1.4,1.1-3.3,0-4.8
		c-4-5.1-11.2-4.7-16.7-2.8c-2.9,1-6.2,2.2-8.5,4.2c-3.5,3-1.7,7.8-0.8,11.6C37.5,37.3,38.6,41.6,39.6,46z"/>
	<path class="st0" d="M69.5,23.1c2-0.2,4.1-0.3,6.1-0.4c-0.7,8.8-1.5,17.6-2.2,26.5c-0.1,1.8,1.7,3.4,3.4,3.4c2-0.1,3.2-1.5,3.4-3.4
		c0.7-8.8,1.4-17.6,2.2-26.3c2.7,0.2,5.3,0.5,7.9,0.9c1.7,0.3,3.7-0.5,4.1-2.4c0.4-1.6-0.5-3.8-2.4-4.1c-7.5-1.3-15-1.7-22.5-0.9
		c-1.7,0.2-3.5,1.4-3.4,3.4C66.2,21.4,67.6,23.3,69.5,23.1z"/>
	<path class="st0" d="M103.6,30.9c1.7,0.4,3.7-0.5,4.1-2.4c0.8-3.2,1.5-6.4,2.3-9.5c0.4-1.7-0.5-3.7-2.4-4.1
		c-1.7-0.4-3.7,0.5-4.1,2.4c-0.8,3.2-1.5,6.4-2.3,9.5C100.8,28.5,101.7,30.5,103.6,30.9z"/>
	<path class="st0" d="M142.5,44.4c0.4-5.6-4.3-9.5-8.9-11.7c-2.1-1-4.3-1.9-6.3-3.2c0,0-0.1-0.1-0.2-0.1c-0.2-0.2-0.5-0.4-0.7-0.6
		c-0.3-0.3-0.7-0.7-1-1c0-0.1-0.3-0.5-0.3-0.5c-0.1-0.2-0.2-0.4-0.3-0.5c0-0.1-0.1-0.1-0.1-0.1c0,0,0-0.1,0-0.2
		c0-0.1-0.1-0.3-0.1-0.4c0,0,0,0,0,0c0-0.1,0-0.3,0-0.5c0.1,0,0.2-0.6,0.1-0.5c0.1-0.1,0.1-0.2,0.2-0.3c0-0.1,0.1-0.1,0.1-0.1
		c0.1-0.1,0.2-0.2,0.3-0.4c0,0,0.1-0.1,0.1-0.1c0.3-0.2,0.6-0.4,1-0.6c0,0,0.1,0,0.1-0.1c0,0,0,0,0.1,0c0.3-0.1,0.7-0.2,1.1-0.3
		c0.1,0,0.1,0,0.2-0.1c0,0,0.1,0,0.2,0c0.4,0,0.7,0,1.1,0c0.7,0,1.1,0.1,1.9,0.3c1.7,0.4,3.3,1.1,5,1.8c1.6,0.7,3.8-0.7,4.1-2.4
		c0.4-2-0.6-3.4-2.4-4.1c-5.5-2.3-12-3.8-16.9,0.6c-2.2,1.9-3.2,4.8-2.8,7.7c0.4,2.7,1.9,5.1,3.9,6.8c2,1.8,4.2,2.9,6.6,4
		c1,0.4,1.9,0.9,2.9,1.4c0.5,0.3,1,0.5,1.5,0.9c0.2,0.1,0.4,0.3,0.6,0.4c0.1,0.1,0.2,0.1,0.3,0.2c0,0,0,0,0.1,0.1
		c0.4,0.3,0.8,0.7,1.1,1.1c0,0,0,0,0,0c0.1,0.2,0.3,0.5,0.4,0.7c0,0,0,0,0,0.1c0,0,0,0,0,0.1c0.1,0.2,0.1,0.5,0.2,0.7
		c0,0.1,0,0.1,0,0.1c0,0,0,0.1,0,0.2c0,0.1-0.1,0.6,0,0.6c-0.1,0.2-0.1,0.4-0.2,0.6c0,0,0,0.1,0,0.1c-0.1,0.3-0.3,0.5-0.4,0.8
		c0,0-0.3,0.4-0.3,0.5c-0.3,0.4-0.6,0.7-1,1c-0.1,0.1-0.1,0.1-0.1,0.1c0,0,0,0-0.1,0.1c-0.3,0.2-0.6,0.4-1,0.6
		c0.1,0-0.6,0.3-0.6,0.3c0,0-0.1,0-0.1,0c-0.2,0.1-0.4,0.1-0.6,0.2c-0.2,0.1-0.5,0.1-0.7,0.2c0,0-0.5,0.1-0.6,0.1
		c-1.6,0.1-2.3-0.1-3.9-0.5c-1.4-0.4-2.3-0.9-3.7-1.6c-1.4-0.8-2.8-1.8-4.2-2.7c-1.5-1.1-3.8-0.3-4.6,1.2c-1,1.7-0.3,3.5,1.2,4.6
		c4.6,3.4,10.3,6.4,16.2,5.7C136.7,54.9,142.1,50.4,142.5,44.4z M125.6,24C125.6,23.9,125.6,23.9,125.6,24L125.6,24z M135,41.7
		C134.7,41.4,134.9,41.6,135,41.7L135,41.7z M132.1,48.4C132.1,48.4,132.1,48.4,132.1,48.4C132.3,48.3,132.3,48.4,132.1,48.4z
		 M135.5,45.2C135.5,45.3,135.5,45.3,135.5,45.2L135.5,45.2z"/>
	<path class="st0" d="M166.6,56.7c1.7-0.1,3.5-1.5,3.4-3.4c-0.6-6.7-1.2-13.4-1.7-20.2c2.1,2.8,4.2,5.6,6.4,8.4
		c1,1.3,2.4,2.5,4.1,2.8c2.1,0.4,4.1-0.3,5.7-1.8c1.1-1.1,1.9-2.5,2.7-3.8c0.8-1.2,1.7-2.5,2.4-3.4c0.6-0.8,1.3-1.5,2-2.3
		c-0.4,8-0.8,16.1-1.1,24.1c-0.1,1.8,1.6,3.5,3.4,3.4c1.9-0.1,3.3-1.5,3.4-3.4c0.4-10.6,0.9-21.2,1.5-31.8c0.1-2.4-3-4.4-5.1-2.9
		c-3.2,2.2-6.1,4.8-8.6,7.8c-1.2,1.5-2.4,3-3.4,4.6c-0.5,0.8-1,1.6-1.4,2.3c-0.1,0.1-0.1,0.1-0.1,0.2c-0.2-0.2-0.5-0.6-0.5-0.5
		c-0.3-0.4-0.7-0.9-1-1.3c-1.2-1.7-2.5-3.3-3.7-5c-2.7-3.6-5.4-7.2-8-10.7c-0.9-1.2-2.2-2-3.8-1.5c-1.3,0.4-2.6,1.8-2.5,3.3
		c0.9,10.6,1.8,21.1,2.7,31.7C163.3,55.1,164.6,56.8,166.6,56.7z"/>
	<path class="st0" d="M209.4,52.6c-0.2-0.4-0.5-0.8-0.7-1.2c-0.1-0.2-0.2-0.4-0.3-0.6c0,0,0-0.1-0.1-0.2c-0.3-0.7-0.5-1.3-0.6-2
		c4.2,0,8.3,0,12.5,0c0,2.5-0.1,4.9-0.3,7.4c-0.1,1.8,1.7,3.4,3.4,3.4c1.9-0.1,3.2-1.5,3.4-3.4c0.5-5.6,0.4-11.2-0.3-16.7
		c-0.6-4.8-1.3-10.5-6.1-13c-4.5-2.4-9.7-0.5-13.3,2.6c-3.3,2.9-5.5,7.4-6.1,11.7c-0.8,5.3,0,10.7,2.7,15.4c0.9,1.6,3,2.1,4.6,1.2
		C209.7,56.2,210.3,54.1,209.4,52.6z M216.2,31.9C216.1,31.8,215.9,31.8,216.2,31.9L216.2,31.9z M208.3,38.6
		c0.1-0.2,0.1-0.3,0.2-0.5c0-0.1,0.1-0.2,0.1-0.3c0.2-0.4,0.4-0.8,0.6-1.2c0.2-0.4,0.5-0.8,0.7-1.1c0.1-0.1,0.2-0.3,0.3-0.4
		c0,0,0.2-0.2,0.3-0.3c0.2-0.3,0.5-0.5,0.8-0.8c0.1-0.1,0.6-0.5,0.7-0.6c0.3-0.2,0.6-0.4,0.9-0.6c0.2-0.1,0.4-0.2,0.6-0.3
		c0,0,0.3-0.2,0.5-0.2c0.1,0,0.3-0.1,0.3-0.1c0.1,0,0.3-0.1,0.4-0.1c0.1,0,0.8-0.1,0.8-0.2c0.3,0,0.6,0,0.9,0c0,0,0,0,0,0
		c0.2,0.1,0.4,0.1,0.6,0.2c0,0,0,0,0,0c0.1,0.1,0.3,0.1,0.4,0.2c0.6,0.3,0.1,0.1,0.1,0c0.1,0.1,0.3,0.3,0.4,0.4
		c0,0.1,0.1,0.1,0.1,0.2c0.1,0.2,0.2,0.4,0.3,0.6c0,0,0.1,0.2,0.1,0.2c0.1,0.2,0.2,0.4,0.2,0.6c0.6,1.8,0.8,3.7,1,5.5
		c0.1,0.6,0.1,1.3,0.2,1.9c-4.2,0-8.3,0-12.5,0c0-0.2,0.1-0.4,0.1-0.6C207.7,40.3,208,39.5,208.3,38.6z"/>
	<path class="st0" d="M252.2,60.9c1.4,1.1,3.8,0.3,4.6-1.2c0.9-1.8,0.3-3.5-1.2-4.6c-0.4-0.3-0.8-0.6-1.2-0.9c0,0-0.3-0.2-0.3-0.3
		c-0.1-0.1-0.3-0.2-0.3-0.3c-0.8-0.6-1.5-1.2-2.3-1.8c-1.6-1.3-3.1-2.5-4.6-3.8c-1.9-1.6-3.7-3.3-5.5-5c4.3-3.4,8.6-6.9,12.9-10.3
		c0.6-0.5,1-1.6,1-2.4c0-0.8-0.4-1.8-1-2.4c-0.6-0.6-1.5-1-2.4-1c-0.9,0-1.6,0.4-2.4,1c-4.1,3.3-8.3,6.6-12.4,10
		c-0.2-3-0.4-5.9-0.6-8.9c-0.1-1.8-1.5-3.5-3.4-3.4c-1.7,0.1-3.5,1.5-3.4,3.4c0.6,9.5,1.3,18.9,1.9,28.4c0.1,1.8,1.5,3.5,3.4,3.4
		c1.7-0.1,3.5-1.5,3.4-3.4c-0.2-2.8-0.4-5.6-0.6-8.4C242.4,53.2,247.2,57.1,252.2,60.9z"/>
	<path class="st0" d="M267.6,58.9c1,1.3,2.6,2,4.1,1.4c6.6,2.9,14.8,1.7,20.1-3.5c1.2-1.2,1.3-3.5,0-4.8c-1.3-1.2-3.4-1.3-4.8,0
		c-0.3,0.3-0.7,0.6-1,0.9c-0.2,0.1-0.4,0.3-0.5,0.4c-0.3,0.2-0.7,0.4-1.1,0.6c-0.2,0.1-0.4,0.2-0.6,0.3c0,0,0,0,0,0c0,0,0,0,0,0
		c-0.8,0.3-1.6,0.5-2.5,0.7c-0.2,0-0.4,0.1-0.5,0.1c0,0,0,0,0,0c-0.5,0-0.9,0.1-1.4,0.1c-0.4,0-0.8,0-1.2,0c-0.2,0-0.4,0-0.6,0
		c0.2,0,0.3,0.1,0,0c0,0,0,0,0,0c0,0,0,0-0.1,0c0,0,0,0,0.1,0c-0.8-0.1-1.7-0.3-2.5-0.6c-0.2-0.1-0.3-0.1-0.5-0.2
		c-0.1,0-0.1-0.1-0.2-0.1c-0.4-0.2-0.7-0.4-1.1-0.6c-0.4-0.2-0.7-0.4-1-0.7c0,0,0,0-0.1-0.1c-0.2-0.2-0.4-0.4-0.6-0.6
		c-0.2-0.2-0.3-0.3-0.5-0.4c-0.3-0.5-0.6-0.9-0.9-1.4c-0.4-0.7-0.8-1.4-1.1-2c3.2,0,6.4,0,9.7,0c1.8,0,3.5-1.6,3.4-3.4
		c-0.1-1.8-1.5-3.4-3.4-3.4c-3.8,0-7.6,0-11.4,0c0-0.2,0-0.4,0-0.7c0,0,0.1-0.8,0.2-0.9c0-0.1,0.3-0.9,0.3-0.9
		c0.2-0.4,0.4-0.8,0.6-1.1c0.1-0.1,0.2-0.2,0.2-0.4c0,0,0.1-0.1,0.2-0.2c1.1-1.1,2.2-1.8,3.4-2.2c0.7-0.3,1.5-0.4,2.2-0.6
		c0.1,0,0.1,0,0.2,0c0.2,0,0.4,0,0.6-0.1c0.4,0,0.9,0,1.3,0c4,0,8.1,1.7,12,3.3c1.6,0.7,3.8-0.7,4.1-2.4c0.4-1.9-0.6-3.4-2.4-4.1
		c-7.1-2.8-14.6-5.1-21.9-1.8c-3.3,1.5-5.9,4.3-7.1,7.8c-1.2,3.4-0.8,7.2,0.3,10.6C263,52,265.2,55.6,267.6,58.9z M286,53
		C286,53,286,53,286,53C286.2,52.9,286.3,52.8,286,53z M280.8,55.1C280.9,55.1,281,55.1,280.8,55.1L280.8,55.1z"/>
	<path class="st0" d="M277.5,55.1C277.5,55.1,277.5,55.1,277.5,55.1C277.5,55.1,277.5,55.1,277.5,55.1
		C277.5,55.1,277.5,55.1,277.5,55.1z"/>
	<path class="st0" d="M9.3,94.1c0.2,0,0.3,0.1,0.4,0.1c0,0,0,0,0,0C9.6,94.1,9.4,94.1,9.3,94.1z"/>
	<path class="st0" d="M8.5,93.7C8.5,93.7,8.5,93.7,8.5,93.7C8.5,93.7,8.5,93.7,8.5,93.7C8.5,93.7,8.5,93.7,8.5,93.7z"/>
	<path class="st0" d="M8.2,93.4C8.2,93.4,8.2,93.4,8.2,93.4c0.1,0.1,0.2,0.2,0.3,0.3C8.4,93.6,8.4,93.5,8.2,93.4z"/>
	<path class="st0" d="M24.8,70.9c-6.4-4.2-13.9-6.6-21.5-7.3c-1-0.1-1.9,0.4-2.5,1.2C0.3,65.4,0,66.2,0,67c0,0.8,0.3,1.5,0.7,2
		c0.3,0.3,0.6,0.6,0.9,0.8c0,0,0,0,0,0c0,0,0,0,0,0.1c0.2,2-0.1,3.9-0.3,5.9c-0.5,4.7-1.3,9.5-0.9,14.3c0.2,2.4,0.6,4.9,2,7
		c1.6,2.4,4,3.7,6.9,3.9c3.2,0.2,6.3-1,9.2-2.3c4.6-2.1,9.5-5,12.5-9.2c2.3-3.2,2.6-7.3,1-10.9C30.6,75.3,27.8,72.9,24.8,70.9z
		 M2.3,70.1C2.3,70.1,2.3,70.1,2.3,70.1c0,0-0.1,0-0.2-0.1C2.2,70,2.2,70.1,2.3,70.1z M2.6,70.2C2.4,70.2,2.5,70.2,2.6,70.2
		L2.6,70.2z M2.7,70.3c-0.2-0.1-0.3-0.1-0.4-0.1c0,0,0,0-0.1,0c0.3,0.1,0.7,0.2,1.1,0.2C3.1,70.3,2.9,70.3,2.7,70.3z M26,84.8
		C26,84.8,26,84.8,26,84.8L26,84.8z M26.3,83.8c-0.1,0.2-0.1,0.5-0.2,0.7c0,0,0,0.1-0.1,0.1c-0.2,0.4-0.4,0.7-0.6,1.1
		c-0.1,0.1-0.1,0.2-0.1,0.2c0,0-0.1,0.1-0.2,0.2c-0.2,0.3-0.4,0.5-0.7,0.8c-0.5,0.5-1,1-1.5,1.4c0.1-0.1,0.4-0.3-0.1,0.1
		c-0.3,0.2-0.6,0.4-0.8,0.6c-0.5,0.3-1,0.7-1.6,1C18.6,91,16.8,92,15,92.9c-0.1,0.1-0.2,0.1-0.4,0.2c-0.4,0.1-0.7,0.3-1.1,0.4
		c-0.7,0.2-1.3,0.4-2,0.6c-0.2,0.1-0.5,0.1-0.7,0.1c-0.1,0-0.2,0-0.3,0c-0.2,0-0.4,0-0.6,0c0,0-0.1,0-0.1,0c0,0,0.1,0,0.1,0.1
		c0,0-0.1,0-0.1-0.1c-0.1,0-0.1,0-0.2,0c-0.3,0-0.3-0.1-0.2-0.1C9.1,94,9,94,8.8,94c0,0,0,0,0,0c0,0,0,0,0,0c0,0,0,0,0,0
		c0,0,0,0,0,0c-0.1,0-0.1-0.1-0.2-0.1c0,0,0,0,0,0c0,0-0.1,0-0.2-0.1c0,0,0,0,0,0c0-0.1-0.1-0.2-0.2-0.2c0,0,0,0,0,0
		c0,0-0.1-0.1-0.1-0.1c0,0,0.1,0,0.1,0.1C8.1,93.3,8,93.1,8,92.9c0,0,0,0,0-0.1c-0.1-0.1-0.1-0.3-0.2-0.4c-0.1-0.4-0.3-0.9-0.3-1.4
		c0-0.2-0.1-0.4-0.1-0.6c0,0,0,0,0,0c-0.1-0.6-0.1-1.2-0.1-1.7c-0.2-4.6,0.6-9.1,1-13.6c0.1-1.2,0.2-2.5,0.2-3.9
		c1.2,0.3,2.4,0.6,3.6,1c2.9,0.9,5.4,2.1,8.1,3.7c0.6,0.4,1.2,0.7,1.8,1.1c0.2,0.2,0.5,0.3,0.7,0.5c0.1,0.1,0.2,0.1,0.2,0.2
		c0,0,0.1,0.1,0.2,0.2c0.5,0.5,1.1,0.9,1.5,1.4c0.7,0.7,0.6,0.6,1,1.3c0.1,0.2,0.3,0.5,0.4,0.7c0,0.1,0.1,0.2,0.1,0.2
		c0,0.1,0,0.1,0,0.2c0.1,0.2,0.1,0.5,0.2,0.7c0,0.1,0,0.6,0,0.7C26.4,83.3,26.3,83.8,26.3,83.8z"/>
	<path class="st0" d="M8.5,93.7c0.1,0.1,0.2,0.2,0.2,0.3c0,0,0,0,0,0C8.7,93.8,8.6,93.8,8.5,93.7z"/>
	<path class="st0" d="M8.5,93.7c-0.1-0.1-0.1,0-0.1,0C8.4,93.7,8.4,93.7,8.5,93.7C8.4,93.7,8.4,93.7,8.5,93.7
		c-0.1,0.1,0,0.1,0.1,0.2C8.6,93.8,8.6,93.8,8.5,93.7z"/>
	<path class="st0" d="M53.1,68.2c-1.7,0.5-2.9,2.4-2.4,4.1c1.3,4,2.8,8,2.7,12.1c0,1-0.1,1.6-0.3,2.4c-0.1,0.4-0.2,0.7-0.3,1.1
		c-0.1,0.2-0.1,0.4-0.2,0.6c0,0,0,0.1,0,0.1c0,0,0,0.1-0.1,0.1c-0.4,0.7-0.7,1.3-1.1,1.9c0,0-0.1,0.1-0.1,0.1
		c-0.1,0.2-0.3,0.3-0.4,0.5c-0.3,0.3-0.6,0.6-0.9,0.9c0,0-0.1,0.1-0.1,0.1c-0.2,0.1-0.3,0.2-0.5,0.3c-0.3,0.2-0.6,0.4-0.9,0.5
		c0,0,0,0-0.1,0c-0.1,0-0.3,0.1-0.4,0.1c-0.2,0.1-0.4,0.1-0.6,0.2c-0.1,0-0.3,0.1-0.5,0.1c-0.2,0-0.6,0-0.7,0c-0.1,0-0.1,0-0.2,0
		c-0.2,0-0.3-0.1-0.5-0.1c-0.1,0-0.6-0.2-0.8-0.2c-0.1,0-0.1-0.1-0.1-0.1c-0.3-0.1-0.5-0.3-0.8-0.4c-0.1-0.1-0.2-0.2-0.4-0.2
		c0,0,0,0,0,0c-0.3-0.2-0.5-0.5-0.8-0.7c-0.1-0.2-0.3-0.3-0.4-0.5c0.1,0.1,0.3,0.5,0-0.1c-0.2-0.3-0.5-0.7-0.7-1.1
		c-0.2-0.3-0.3-0.7-0.5-1c0,0,0,0,0,0c0,0,0,0,0-0.1c-0.1-0.2-0.1-0.4-0.2-0.6c-0.1-0.4-0.2-0.7-0.3-1.1c0-0.2-0.1-0.9-0.2-0.8
		c-0.4-4.6,1.4-9,3.2-13.4c0.7-1.6-0.7-3.8-2.4-4.1c-1.9-0.4-3.4,0.6-4.1,2.4c-1.9,4.8-3.8,9.8-3.4,15.1c0.4,4.6,2.4,8.9,6.1,11.6
		c3.7,2.7,8.6,2.9,12.6,0.7c3.7-2.1,6.6-6.2,7.4-10.4c1.3-6.1-0.5-12.1-2.5-17.9C56.7,68.8,55,67.7,53.1,68.2z M49.8,92.4
		C49.7,92.5,49.8,92.5,49.8,92.4L49.8,92.4z M51.5,90.7C51.6,90.6,51.5,90.6,51.5,90.7L51.5,90.7z"/>
	<path class="st0" d="M81.2,73.1c-2.3,1.8-3.8,4.1-5.1,6.7c-0.5,1-1.1,2-1.7,3c0,0,0,0,0,0c-0.2,0.2-0.4,0.4-0.6,0.6
		c-0.1,0-0.1,0.1-0.2,0.1c-0.2,0-0.5-0.1-0.3,0c-0.1,0-0.1,0-0.2,0c-0.1,0-0.1-0.1-0.2-0.1c0,0-0.1-0.1-0.1-0.1
		c-0.1-0.1-0.2-0.2-0.3-0.3c0,0-0.1-0.1-0.1-0.2c-0.1-0.3-0.3-0.5-0.4-0.8c0-0.1-0.1-0.1-0.1-0.2c-0.1-0.2-0.1-0.3-0.2-0.5
		c-0.1-0.3-0.2-0.6-0.3-0.9c-0.4-1.5-0.5-3.1-0.9-4.6c-0.5-2-1.4-3.8-2.7-5.3c-1-1.1-2.8-1.3-4.1-0.5c-1.4,0.8-1.8,2.3-1.5,3.8
		c1.2,7.6,1.2,15.7-0.2,23.3c-0.3,1.7,0.5,3.7,2.4,4.1c1.6,0.4,3.8-0.5,4.1-2.4c0.6-3.3,0.9-6.5,1.1-9.8c1.5,0.9,3.3,1.3,5.3,0.9
		c2-0.4,3.5-1.6,4.7-3.2c0,4.7,0,9.5,0.1,14.2c0,1.8,1.5,3.5,3.4,3.4c1.8-0.1,3.4-1.5,3.4-3.4c0-8.4-0.1-16.8-0.1-25.2
		C86.3,73.7,83.3,71.5,81.2,73.1z"/>
	<path class="st0" d="M115.7,86.9c-1.5-0.6-3-1.1-4.5-1.5c0.7-0.9,1.2-2,1.5-3c1.3-4.2-1.4-8.2-5.5-9.4c-7.4-2.2-14.9,3.7-17,10.6
		c-1.5,4.9-2,10.6,0.7,15.2c2.2,3.8,6.2,6,10.4,7c4.4,1.1,9.1,1,13.6,0.5c2.8-0.4,5.8-0.7,8.3-2.1c3.6-2,5-6.3,2.8-9.9
		C123.9,90.6,119.5,88.5,115.7,86.9z M96.3,94.5c0.1,0.1,0.1,0.2,0.1,0.3C96.3,94.7,96.3,94.6,96.3,94.5z M119.4,98.5
		c-0.9,0.3-1.9,0.5-2.9,0.7c-0.5,0.1-1,0.2-1.5,0.2c-0.2,0-0.3,0-0.5,0.1c-0.1,0-0.3,0-0.4,0c-1.9,0.2-3.8,0.3-5.7,0.3
		c-0.9,0-1.8-0.1-2.6-0.1c-0.2,0-0.5,0-0.7-0.1c0,0,0,0,0,0c-0.4-0.1-0.9-0.1-1.3-0.2c-0.8-0.2-1.6-0.4-2.3-0.6
		c-0.2-0.1-0.9-0.3-1-0.3c0,0,0.1,0,0.4,0.1c-0.4-0.1-0.8-0.4-1.2-0.6c-0.3-0.2-0.6-0.4-0.9-0.6c-0.1-0.1-0.2-0.1-0.3-0.2
		c0,0-0.1-0.1-0.1-0.1c-0.2-0.2-0.5-0.4-0.7-0.7c-0.1-0.1-0.3-0.3-0.4-0.4c0,0,0,0-0.1-0.1c0,0,0,0,0,0c-0.2-0.3-0.4-0.7-0.6-1
		c0-0.1-0.1-0.1-0.1-0.2c0,0,0,0,0-0.1c0-0.1-0.1-0.3-0.1-0.4c-0.1-0.4-0.3-0.8-0.3-1.2c0-0.2-0.1-0.4-0.1-0.7c0.2,1,0,0,0-0.3
		c0-0.5,0-1,0-1.5c0-0.3,0-0.5,0-0.8c0-0.1,0-0.5,0.1-0.7c0-0.2,0.1-0.4,0.1-0.4c0.1-0.4,0.1-0.8,0.2-1.2c0.2-0.7,0.4-1.5,0.6-2.2
		c0.1-0.2,0.1-0.4,0.2-0.6c0-0.1,0-0.1,0.1-0.2c0,0,0,0,0.1-0.1c0.3-0.5,0.6-1.1,0.9-1.6c0,0,0.3-0.5,0.4-0.5
		c0.1-0.2,0.3-0.3,0.4-0.5c0.4-0.4,0.8-0.8,1.2-1.1c0,0,0.5-0.3,0.5-0.4c0.2-0.1,0.5-0.3,0.7-0.4c0.2-0.1,0.4-0.2,0.5-0.3
		c0.1,0,0.5-0.2,0.6-0.2c0.3-0.1,0.5-0.1,0.8-0.2c0.1,0,0.2-0.1,0.4-0.1c0.3,0,0.5,0,0.8,0c0,0,0.5,0,0.6,0c0.2,0,0.4,0.1,0.6,0.1
		c0.2,0,0.7,0.3,0.3,0.1c0.1,0,0.9,0.4,0.4,0.2c0.1,0.1,0.2,0.2,0.2,0.2c0,0,0,0,0,0.1c0,0,0,0,0,0c0,0,0,0,0,0.1c0,0,0,0,0,0
		c0,0,0,0,0,0c0,0.1,0,0.1,0,0.1c0,0,0,0,0,0.1c0,0.1-0.2,0.5-0.2,0.5c-0.2,0.3-0.4,0.6-0.6,0.9c0,0-0.4,0.5-0.4,0.5
		c-0.2,0.2-0.4,0.4-0.6,0.6c-0.2,0.2-0.4,0.4-0.6,0.6c0,0-0.4,0.4-0.5,0.4c-0.5,0.4-1,0.7-1.5,1c-2.9,1.8-1.6,6.2,1.7,6.3
		c2.9,0.1,5.6,0.6,8.6,1.7c1.3,0.5,2.2,0.8,3.5,1.5c1.2,0.6,2.8,1.6,3.4,2.2c0.2,0.2,0.4,0.4,0.6,0.6c0.1,0.1,0.5,0.7,0.3,0.3
		c0,0,0.6,0.7,0.3,0.5c0,0,0,0,0,0c0,0,0,0-0.1-0.1c0,0.1,0,0.1,0.1,0.2c-0.3,0.1-0.3,0.2-0.1,0.2c0,0,0,0,0,0
		C120.1,98.2,119.3,98.6,119.4,98.5z"/>
	<path class="st0" d="M165,77.8c-3.3,5.4-6.9,10.4-11.1,15.1c-0.6-0.5-1.1-1-1.6-1.6c-1.2-1.2-2.3-2.6-3.1-3.6c-1-1.4-2-2.9-2.8-4.5
		c-0.9-1.7-1.4-2.7-2-4.5c-0.6-1.6-2-2.6-3.7-2.4c-1.7,0.2-2.9,1.6-2.9,3.3c-0.3,8-0.6,15.9-0.9,23.9c-0.1,1.8,1.6,3.5,3.4,3.4
		c1.9-0.1,3.3-1.5,3.4-3.4c0.1-3.8,0.3-7.7,0.4-11.5c2.4,3.2,5.2,6,8.4,8.5c1.1,0.9,3.2,0.5,4.1-0.5c2.6-2.8,5-5.7,7.4-8.8
		c-0.2,4.8-0.5,9.7-0.7,14.5c-0.1,1.8,1.6,3.5,3.4,3.4c1.9-0.1,3.3-1.5,3.4-3.4c0.4-8.7,0.8-17.5,1.2-26.2
		C171.4,76,166.6,75,165,77.8z"/>
	<path class="st0" d="M185.1,86.7C185.1,86.7,185.1,86.8,185.1,86.7c-0.1,0.1-0.3,0.1-0.3,0.1c0,0,0,0,0,0
		C184.8,86.9,185,86.9,185.1,86.7z"/>
	<path class="st0" d="M196.7,92.5C196.7,92.5,196.7,92.5,196.7,92.5C196.6,92.2,196.4,91.9,196.7,92.5z"/>
	<path class="st0" d="M195.6,90.4c-0.1-0.1-0.1-0.2-0.2-0.2c0,0,0,0,0-0.1C195.5,90.5,195.6,90.5,195.6,90.4z"/>
	<path class="st0" d="M182.2,98.9C182.2,98.9,182.2,98.9,182.2,98.9c0,0-0.1-0.1-0.2-0.2C182.1,98.7,182.1,98.8,182.2,98.9z"/>
	<path class="st0" d="M197.2,96C197.2,96,197.2,96,197.2,96c0,0,0,0.1,0,0.1C197.2,96,197.2,96,197.2,96z"/>
	<path class="st0" d="M195.5,100C195.4,100,195.4,100.2,195.5,100L195.5,100z"/>
	<path class="st0" d="M180.2,94.3C180.2,94.3,180.2,94.3,180.2,94.3c0,0.1,0,0.3,0,0.4c0,0,0,0.1,0,0.1
		C180.3,94.5,180.3,94.3,180.2,94.3z"/>
	<path class="st0" d="M186.4,102.2C186.4,102.2,186.4,102.2,186.4,102.2c0.1,0,0.1,0,0.2,0C186.6,102.2,186.5,102.2,186.4,102.2z"/>
	<path class="st0" d="M181.6,81c-2.8,1.3-5.4,3.9-6.7,6.8c-1.3,2.8-1.7,5.8-1.1,8.8c1.1,5.5,5.6,10,10.7,12.1c2.8,1.2,6,1.4,9,0.6
		c3.5-1,6.3-3.4,8.3-6.4c3.8-5.9,2.6-13.3-2.2-18.2C194.9,79.9,187.7,78.1,181.6,81z M196.7,98.1C196.7,98.1,196.7,98.1,196.7,98.1
		C196.7,98.1,196.7,98.1,196.7,98.1C196.7,98.1,196.7,98.1,196.7,98.1z M195.1,100.5c-0.4,0.4-0.8,0.8-1.2,1.2
		c-0.1,0.1-0.2,0.1-0.3,0.2c-0.2,0.1-0.4,0.3-0.6,0.4c-0.2,0.1-0.4,0.2-0.6,0.3c-0.1,0-0.2,0.1-0.3,0.1c-0.4,0.2-0.9,0.3-1.4,0.3
		c0,0,0,0,0,0c-0.3,0-0.5,0-0.8,0c-0.2,0-0.5,0-0.7,0c0,0,0,0,0,0c-0.4-0.2-1-0.2-1.5-0.3c-0.2-0.1-0.7-0.3-1.1-0.4
		c0.2,0.1,0.3,0.2,0,0.1c-0.1,0-0.1-0.1-0.2-0.1c0,0,0,0,0,0c0,0,0,0,0,0c0,0-0.1,0-0.1,0c-0.3-0.1-0.5-0.3-0.8-0.4
		c-0.4-0.2-0.8-0.5-1.2-0.8c-0.1,0-0.1-0.1-0.2-0.1c-0.2-0.2-0.4-0.4-0.6-0.6c-0.4-0.3-0.7-0.7-1-1c-0.1-0.1-0.2-0.2-0.3-0.3
		c0,0,0,0,0,0c0,0,0-0.1-0.1-0.1c0-0.1-0.1-0.1-0.1-0.2c-0.1-0.2-0.1-0.1,0,0c0-0.1-0.1-0.1-0.1-0.1c-0.3-0.4-0.5-0.8-0.8-1.2
		c-0.1-0.2-0.2-0.5-0.3-0.7c0,0,0,0,0-0.1c0,0,0,0,0-0.1c-0.2-0.4-0.3-0.9-0.4-1.4c0-0.1-0.1-0.3-0.1-0.4c0,0,0,0.1,0,0.1
		c0,0,0-0.1,0-0.2c0-0.1,0-0.2,0-0.2c0-0.1,0-0.2,0-0.2c0-0.4,0-0.9,0-1.3c0-0.1,0-0.1,0-0.2c0-0.2,0.1-0.5,0.1-0.7
		c0.1-0.3,0.1-0.5,0.2-0.8c0-0.1,0-0.1,0.1-0.2c0.3-0.5,0.5-1,0.8-1.4c0.1-0.1,0.1-0.2,0.2-0.3c0.2-0.2,0.4-0.4,0.6-0.6
		c0.2-0.2,0.4-0.4,0.6-0.6c0.1-0.1,0.2-0.2,0.3-0.3c0.5-0.5,0.2-0.2,0-0.1c0.2-0.2,1.3-0.8,1.6-0.9c0,0,0,0,0.2-0.1
		c0.1,0,0.1,0,0.2-0.1c0,0,0.1,0,0.1-0.1c0,0,0,0,0,0c0.2-0.1,0.5-0.2,0.7-0.2c0.3-0.1,0.6-0.1,0.9-0.2c0,0,0,0,0.1,0
		c0,0,0.1,0,0.1,0c0.6,0,1.2,0,1.7,0c0.1,0,0.1,0,0.2,0c0,0,0.1,0,0.1,0c0.3,0,0.5,0.1,0.8,0.2c0.3,0.1,0.5,0.1,0.7,0.2
		c0.2,0,0.3,0.1,0.5,0.2c0.1,0,0.8,0.3,0.2,0.1c-0.5-0.3,0.4,0.2,0.5,0.2c0.2,0.1,0.5,0.2,0.7,0.4c0.3,0.1,0.5,0.3,0.8,0.5
		c0.1,0,0.2,0.2,0.4,0.3c0,0.1,0.5,0.4,0.6,0.5c0.2,0.2,0.5,0.4,0.7,0.7c0.2,0.2,0.4,0.4,0.6,0.7c0,0,0,0,0-0.1c0,0,0.1,0.1,0.1,0.1
		c0,0,0.1,0.1,0.1,0.1c0.1,0.1,0.1,0.1,0.1,0.2c0,0,0.1,0.1,0.1,0.1c0.4,0.5,0.7,1.1,1,1.7c0.1,0.1,0.1,0.3,0.2,0.4
		c0,0,0-0.1-0.1-0.1c0.1,0.3,0.2,0.6,0.3,0.9c0.1,0.3,0.1,0.5,0.2,0.8c0,0.1,0,0.3,0,0.4c0,0.3,0,0.7,0,1c0,0.1,0,0.2,0,0.4
		c0,0,0,0,0-0.1c0,0,0,0.1,0,0.1c0,0,0,0,0,0c0,0.5-0.1,0.3,0,0.1c-0.1,0.3-0.1,0.6-0.1,0.8c-0.1,0.4-0.2,0.7-0.3,1.1
		c0,0,0,0.1,0,0.1c0,0.1-0.1,0.2-0.1,0.3c-0.2,0.4-0.4,0.7-0.6,1.1c-0.1,0.2-0.2,0.3-0.3,0.5c0,0-0.1,0.1-0.1,0.1c0,0,0,0,0,0
		c0,0.1-0.1,0.1-0.1,0.2C195.3,100.3,195.2,100.4,195.1,100.5z"/>
	<path class="st0" d="M230.9,82.8c-1.9,0.5-2.7,2.4-2.4,4.1c1,5.6,1.4,11.5,1,17.3c-2.2-1.8-4.4-3.9-6.4-6.2
		c-1.7-1.9-2.9-3.4-4.2-5.4c-1.4-2.1-2.7-4.2-3.9-6.5c-1.5-3-6.4-1.6-6.3,1.7c0.2,6.4,0.3,12.7,0.5,19.1c0,1.8,1.5,3.5,3.4,3.4
		c1.8-0.1,3.4-1.5,3.4-3.4c-0.1-2.4-0.1-4.8-0.2-7.2c4.2,5.2,9.2,9.8,14.8,13.5c1.7,1.1,4.6,0.1,5-2c1.3-8.7,1.2-17.5-0.4-26.1
		C234.7,83.4,232.5,82.4,230.9,82.8z"/>
	<path class="st0" d="M254.7,109.1c-0.4-0.2-0.4-0.1-0.2-0.1C254.5,109.1,254.6,109.1,254.7,109.1
		C254.7,109.1,254.7,109.1,254.7,109.1z"/>
	<path class="st0" d="M256.7,109.1C256.8,109.1,256.8,109.1,256.7,109.1C257.1,109.1,257.4,108.9,256.7,109.1z"/>
	<path class="st0" d="M259.1,108.5C259.1,108.5,259.1,108.5,259.1,108.5c-0.3,0-0.4,0.1-0.3,0.1C258.9,108.5,259,108.5,259.1,108.5
		C259.1,108.5,259.1,108.5,259.1,108.5z"/>
	<path class="st0" d="M266.5,104.7c-1.6-0.8-3.7-0.4-4.6,1.2c-0.1,0.2-0.2,0.4-0.4,0.6c0,0-0.1,0.1-0.1,0.1
		c-0.3,0.2-0.5,0.6-0.7,0.8c-0.1,0.1-0.3,0.2-0.4,0.3c0,0,0,0-0.1,0.1c-0.4,0.2-0.7,0.4-1.1,0.6c0,0,0,0,0.1,0c0,0-0.1,0-0.1,0
		c-0.1,0-0.2,0.1-0.2,0.1c-0.1,0-0.2,0.1-0.2,0.1c-0.4,0.1-0.9,0.3-1.4,0.4c-0.2,0-0.4,0-0.6,0.1c0,0,0.1,0,0.1,0
		c-0.4,0-0.9,0-1.3,0c-0.2,0-0.4,0-0.6,0c0,0-0.1,0-0.1,0c0,0,0.1,0,0.1,0c0,0-0.1,0-0.1,0c-0.1,0-0.1,0-0.2,0
		c-0.3-0.1-0.6-0.1-0.9-0.2c-0.4-0.1-0.8-0.3-1.2-0.4c0,0,0,0-0.1,0c-0.2-0.1-0.4-0.2-0.5-0.3c-0.3-0.2-0.7-0.5-1-0.6
		c0,0,0,0-0.1-0.1c-0.2-0.2-0.3-0.3-0.5-0.5c-0.1-0.1-0.2-0.3-0.3-0.4c0,0,0,0,0,0c-0.2-0.4-0.5-0.8-0.7-1.2c-0.3-0.6-0.8-1-1.3-1.3
		c2.6,0,5.2-0.4,7.7-1.2c1.7-0.5,2.9-2.4,2.4-4.1c-0.5-1.7-2.4-2.9-4.1-2.4c-1.2,0.4-2.4,0.6-3.6,0.8c-1.4,0.1-2.7,0.2-4.1,0.1
		c0-0.7,0-1.4,0-2.1c0-0.1,0-0.1,0-0.2c0-0.2,0.1-0.4,0.1-0.5c0.1-0.4,0.2-0.8,0.3-1.3c0-0.1,0.3-0.8,0.3-0.9
		c0.1-0.3,0.3-0.6,0.5-0.9c0.1-0.1,0.4-0.5,0.4-0.6c0.1-0.1,0.2-0.3,0.4-0.4c0.2-0.2,0.5-0.4,0.7-0.6c0,0,0,0,0,0
		c0.1-0.1,0.2-0.1,0.3-0.2c0.4-0.3,0.9-0.5,1.3-0.7c0,0,0.5-0.2,0.6-0.3c0.3-0.1,0.6-0.2,0.9-0.3c0.1,0,0.8-0.3,0.9-0.2
		c-0.5,0.1-0.6,0.1-0.2,0c0.2,0,0.3,0,0.5,0c0.3,0,0.6,0,0.9,0c0.1,0,0.2,0,0.3,0c0.2,0,0.7,0.2,0.8,0.2c0.1,0,0.3,0.1,0.4,0.1
		c0.2,0.1,0.6,0.3,0.6,0.3c0.1,0.1,0.2,0.1,0.2,0.1c0.2,0.2,0.4,0.4,0.6,0.6c0.1,0.1,0.1,0.2,0.2,0.3c0.9,1.5,3,2.2,4.6,1.2
		c1.5-1,2.2-3,1.2-4.6c-3.4-5.3-10-5.9-15.3-3.6c-6.1,2.7-8.8,9.4-8.1,15.8c0.5,4.1,1.9,8,4,11.6c0.4,0.7,1.2,1.3,2,1.5
		c5.9,6.1,18,5.2,22.2-2.6C268.6,107.7,268.2,105.5,266.5,104.7z"/>
	<path class="st0" d="M295.9,82.3c-1.6-0.9-3.7-0.4-4.6,1.2c-2,3.4-3.9,6.9-5.8,10.3c-3.7-3.9-7.4-7.8-11.1-11.8
		c-1.2-1.3-3.6-1.3-4.8,0c-1.3,1.4-1.3,3.4,0,4.8c4.2,4.4,8.4,8.8,12.6,13.3c-1.7,3.3-3.4,6.7-5.1,10.1c-0.8,1.6-0.4,3.6,1.2,4.6
		c1.5,0.9,3.8,0.4,4.6-1.2c1.7-3.5,3.4-6.9,5.2-10.3c0.4-0.2,0.8-0.4,1.1-0.7c0.8-0.9,1.1-2,0.9-3.1c2.3-4.2,4.6-8.4,7-12.6
		C298,85.3,297.4,83.2,295.9,82.3z"/>
</g>
</svg>
