<?xml version="1.0" encoding="utf-8"?>
<!-- Generator: Adobe Illustrator 27.9.5, SVG Export Plug-In . SVG Version: 9.03 Build 54986)  -->
<svg version="1.1" id="Calque_1" xmlns="http://www.w3.org/2000/svg" xmlns:xlink="http://www.w3.org/1999/xlink" x="0px" y="0px"
	 viewBox="0 0 2073.3 131" style="enable-background:new 0 0 2073.3 131;" xml:space="preserve">
<style type="text/css">
	.st0{fill:#FFF1E8;}
	.st1{fill:#1D1D1B;}
</style>
<g>
	<path class="st0" d="M2072.8,105.9c-2.1,0.6-4,1.4-6.1,2.1c-2.8,0.8-5,2.7-7.8,3.6c-2.2,0.8-3.9,0.4-6-0.3
		c-3.4-1.1-5.1-1.6-8.5-1.5c-5.6,0.1-11.1,0.2-16.7,0.5c-5.3,0.3-11.5,0.5-16.3,3c-1.3,0.7-3.4,0.2-3.7-1.5
		c-2.7-15.2,6.4-30.2,14.9-42c7.6-10.6,16.4-20.4,25.6-29.7c-15.1,4.5-29.2,12.1-42,21.1c-15.6,11-30.9,25.3-38.1,43.4
		c-0.8,2-3.3,2.5-4.6,0.6c-11.6-17.4-23.9-37.5-43.7-46c7.7,15.5,19.7,29.6,16.6,48.1c-0.3,1.6-2.4,2.3-3.7,1.5
		c-5.4-3.3-9.5-3.1-15.4-1.6c-3.9,1-8.2,1.9-12.1,1c-3.9-0.9-6.2-4.6-9.8-6c-5.8-2.3-12,5.1-16,8.3c-1,0.8-2.6,1.1-3.5,0
		c-19.6-24.5,7.6-55.4,23.9-75.9c-14.1,3.2-27.7,14.8-37.4,24.2c-10.3,10.1-25.7,27.2-21.2,43.1c0.8,2.7-3.1,4.4-4.6,1.9
		c-6.3-10.9-7.1-22.5-3.7-34.5c3-10.5,8.1-20.1,11.6-30.3c-9.8,5.5-17.9,15.8-24.9,23.9c-4.9,5.6-9.3,11.1-12.1,18
		c-2.8,6.8-4.6,13.9-7.3,20.8c-0.8,2.1-3.2,2.4-4.5,0.6c-15.9-20.7-34.1-40.4-58.8-49.2c9.5,7.9,19.5,15.1,23.4,27.8
		c1.5,4.7,3.1,11-0.1,15.5c-2.8,4-8.3,4.7-12.8,5.3c-3.7,0.5-6.5,1.1-9.9,2.8c-2.3,1.1-5.3,2.8-7.9,1.5c-2-1-2.4-4.3-4.6-4.5
		c-2.4-0.2-6.8,2.6-9,3.5c-3.5,1.5-8.2,4.5-11.9,2.4c-3.9-2.2-4.8-6.9-4.2-11.1c1.5-10.9,9-19.9,14.9-29
		c-19.2,3.2-30.9,18.7-40.4,35.1c-1.4,2.5-5.2,0.8-4.6-1.9c4-16.8-5.3-29.2-17.2-39.7c-4.1-3.6-8.5-7.5-13.6-9.8
		c-1-0.5-4.7-2.2-5.6-0.9c-0.5,0.7,1.4,4.6,1.7,5.3c3.8,9.5,11.5,20.6,10.9,31.2c-0.3,5.9-3.3,13-9,15.6c-5.3,2.4-9.8-0.4-13.2-4.2
		c-4.6,3-8.4,3.6-13.4,0.2c-8.9-5.9-15.5,1.9-24.2,3.8c-1,0.2-2.3-0.1-2.8-1.2c-3.3-7-0.9-15,1.9-21.7c3.8-9.3,9.4-18,15.4-26
		c12.5-16.5,29.8-26,48.5-33.4c-7.3,0.4-14.7,3.2-21.1,5.6c-11,4.2-21.5,9.8-31.7,15.7c-9.8,5.7-19.1,11.9-27.4,19.7
		c-9,8.6-18.3,20.1-16.7,33.4c0.3,2.9-4.2,3.3-4.9,0.7c-3.9-13.8-18-36.9-34.8-34.6c7.8,7.7,13.9,19.1,15,29.5
		c0.4,4.2-0.3,9.1-4.7,10.9c-5,2.1-11-0.7-15.8-3.5c-5.2,0.1-9.8-1.2-14.4-3.7c-4.8-2.6-11.3-5.8-16.7-2.7c-3.8,2.2-6,6.2-10.1,8.2
		c-4.5,2.2-9.7,2.5-14.6,2.5c-6.2,0-12.4-0.6-18.5-1.4c-4.7-0.6-9.9-1-14.3-2.7c-3.3-1.3-6-4-9.5-4.6c-2.9-0.5-5.8,0.4-8.6,1.2
		c-5.5,1.6-10.9,3.7-16.3,5.7c-1.6,0.6-3.1-0.9-3.2-2.4c-1.7-24.6,24.7-38.3,41-52.7c-14.7-3.7-32.8,6.5-44.5,13.8
		c-6.4,4-12.7,8.4-18.3,13.5c-8.4,7.6-17.5,15.1-23.5,24.9c-1.2,2-4.8,1.3-4.6-1.3c0.8-10.8,5-20.7,9.6-30.4
		c4.5-9.4,8.8-19.1,14.6-27.8c5.2-7.8,11.6-14.8,19-20.4c3.6-2.7,10-5.2,14.3-8.7c-18.8,8.9-37.1,19.2-53.2,32.4
		c-18.2,14.9-32.9,33.1-44.7,53.5c-1.4,2.4-5.6,0.8-4.6-1.9c3.4-9.2-2.4-19.3-7.9-26.3c-4.6-5.9-10.5-11.7-17.4-15.1
		c4.7,13.1,12.2,25.7,7.9,39.9c-0.5,1.6-2.9,2.6-4.2,1.1c-18-22.3-47-35.5-75.7-35.3c18.2,5.2,35.1,16.9,42.3,34.5
		c0.6,1.6-0.9,3.1-2.4,3.2c-17,0.3-33.9,0.6-50.9,1.8c-10,0.7-21.5,0.1-30.5-5c-9.3-5.3-12.5-15.4-9.1-25.4
		c3.7-11.2,12.9-19.9,16.9-30.8c-5,2.1-8.4,7.1-11.7,11.4c-4,5.2-8.4,9.9-12.7,14.8c-9.7,10.9-15.9,22.3-19,36.7
		c-0.4,1.9-2.9,2.3-4.2,1.1c-4.9-4.6-11.2-2.4-16.8-0.4c-2.3,0.8-3.6-1.9-2.8-3.7c6.3-14.8,10.2-30.9,18.9-44.7
		c6.8-10.7,16.1-19.3,25-28.3c-20.4,7.8-39.5,21.3-54.6,36.6c-8.3,8.3-16.3,17.9-19.6,29.4c-1.3,4.3-2.8,9.2-6.9,11.6
		c-3.9,2.3-8.8,1.8-13.1,2.9c-4.3-1.1-9.2-0.6-13.1-2.9c-4.1-2.4-5.7-7.3-6.9-11.6c-3.4-11.5-11.4-21-19.7-29.4
		c-15.2-15.3-34.3-28.8-54.7-36.6c8.9,9,18.3,17.6,25,28.3c8.7,13.7,12.6,29.8,19,44.7c0.8,1.8-0.5,4.5-2.8,3.7
		c-5.6-1.9-11.9-4.2-16.8,0.4c-1.3,1.2-3.8,0.8-4.2-1.1c-3.1-14.4-9.3-25.7-19-36.7c-4.3-4.9-8.7-9.6-12.7-14.8
		c-3.3-4.3-6.7-9.4-11.7-11.4c4,11,13.2,19.7,17,30.8c3.4,10,0.2,20.2-9.1,25.4c-9,5.1-20.5,5.7-30.6,5c-17-1.2-33.9-1.4-51-1.8
		c-1.5,0-3-1.6-2.4-3.2c7.2-17.6,24.1-29.4,42.4-34.5c-28.7-0.2-57.8,13-75.9,35.3c-1.2,1.5-3.7,0.5-4.2-1.1
		c-4.3-14.2,3.3-26.9,7.9-39.9c-6.9,3.3-12.8,9.2-17.4,15.1c-5.6,7.1-11.4,17.1-8,26.3c1,2.7-3.2,4.3-4.6,1.9
		c-11.8-20.3-26.6-38.5-44.8-53.5c-16.2-13.2-34.4-23.5-53.3-32.4c4.3,3.5,10.7,6,14.3,8.7c7.5,5.7,13.9,12.6,19.1,20.4
		c5.8,8.7,10.1,18.4,14.6,27.8c4.6,9.7,8.8,19.6,9.6,30.4c0.2,2.6-3.4,3.2-4.7,1.3c-6-9.8-15.1-17.2-23.5-24.9
		c-5.6-5.1-11.8-9.6-18.3-13.5c-11.8-7.3-29.8-17.5-44.6-13.8c16.3,14.4,42.8,28.1,41.1,52.7c-0.1,1.5-1.5,3-3.2,2.4
		c-5.4-2.1-10.8-4.2-16.4-5.7c-2.8-0.8-5.7-1.7-8.6-1.2c-3.6,0.6-6.2,3.4-9.6,4.6c-4.4,1.7-9.6,2.1-14.3,2.7
		c-6.1,0.8-12.3,1.4-18.5,1.4c-5,0-10.2-0.3-14.7-2.5c-4.1-2-6.3-6-10.1-8.2c-5.4-3.1-11.9,0.2-16.7,2.7c-4.7,2.5-9.2,3.7-14.5,3.7
		c-4.8,2.8-10.9,5.5-15.9,3.5c-4.4-1.8-5.1-6.7-4.7-10.9c1.1-10.4,7.3-21.8,15.1-29.5c-16.8-2.2-31,20.8-34.9,34.6
		c-0.7,2.6-5.3,2.2-4.9-0.7c1.7-13.3-7.7-24.7-16.7-33.4c-8.2-7.8-17.6-14.1-27.4-19.7c-10.2-5.9-20.7-11.5-31.8-15.7
		c-6.4-2.5-13.9-5.2-21.1-5.6c18.7,7.4,36,16.9,48.6,33.4c6.1,8,11.6,16.7,15.5,26c2.8,6.7,5.2,14.8,1.9,21.7
		c-0.5,1-1.8,1.4-2.8,1.2c-8.8-1.9-15.4-9.7-24.3-3.8c-5.1,3.3-8.9,2.8-13.5-0.2c-3.4,3.8-7.9,6.6-13.2,4.2c-5.7-2.6-8.7-9.7-9-15.6
		c-0.6-10.5,7.1-21.7,10.9-31.2c0.3-0.7,2.2-4.6,1.7-5.3c-1-1.2-4.6,0.5-5.7,0.9c-5,2.3-9.5,6.2-13.6,9.8
		c-12,10.6-21.3,22.9-17.3,39.7c0.6,2.7-3.1,4.4-4.6,1.9c-9.5-16.5-21.3-31.9-40.5-35.1c5.9,9.1,13.5,18.2,15,29
		c0.6,4.1-0.3,8.8-4.2,11.1c-3.7,2.2-8.5-0.9-12-2.4c-2.2-0.9-6.5-3.7-9-3.5c-2.2,0.2-2.6,3.5-4.6,4.5c-2.5,1.3-5.6-0.4-7.9-1.5
		c-3.4-1.7-6.2-2.3-9.9-2.8c-4.5-0.6-10-1.3-12.8-5.3c-3.2-4.4-1.5-10.7-0.1-15.5c3.9-12.7,13.9-19.9,23.5-27.8
		c-24.7,8.8-43,28.5-59,49.2c-1.3,1.8-3.7,1.5-4.6-0.6c-2.7-6.8-4.5-14-7.3-20.8c-2.9-7-7.3-12.4-12.2-18
		c-7.1-8.1-15.2-18.4-25-23.9c3.5,10.3,8.6,19.9,11.6,30.3c3.4,12,2.6,23.6-3.7,34.5c-1.4,2.5-5.3,0.8-4.6-1.9
		c4.5-15.9-10.9-33-21.2-43.1c-9.7-9.4-23.3-21-37.5-24.2c16.3,20.4,43.6,51.4,24,75.9c-0.9,1.1-2.6,0.8-3.5,0
		c-4-3.2-10.2-10.6-16-8.3c-3.6,1.4-5.9,5.1-9.8,6c-4,0.9-8.3,0-12.2-1c-5.9-1.4-10-1.7-15.4,1.6c-1.3,0.8-3.4,0.1-3.7-1.5
		c-3.1-18.5,8.9-32.6,16.7-48.1c-19.8,8.6-32.2,28.7-43.8,46c-1.3,1.9-3.8,1.4-4.6-0.6c-7.2-18.1-22.6-32.4-38.2-43.4
		c-12.8-9-27-16.7-42.1-21.1c9.2,9.3,18,19,25.7,29.7c8.5,11.8,17.6,26.8,14.9,42c-0.3,1.7-2.4,2.2-3.7,1.5
		c-4.8-2.5-11.1-2.7-16.4-3c-5.6-0.3-11.1-0.4-16.7-0.5c-3.5-0.1-5.2,0.4-8.6,1.5c-2.2,0.7-3.8,1.1-6,0.3c-2.7-0.9-5-2.8-7.8-3.6
		c-2.1-0.6-4-1.5-6.1-2.1c-0.2,0-0.3-0.1-0.5-0.1V131h1038h1035.3v-25.1C2073.1,105.9,2072.9,105.9,2072.8,105.9z"/>
	<path class="st1" d="M2071.9,101c-2.9,0.8-6,1.8-8.8,2.8c-2.7,1-3.8,2.6-6.9,2.6c-2.5,0-3.7-1-6-1.5c-3.2-0.7-7.1-0.1-10.4,0
		c-4.1,0.1-8.1,0.2-12.2,0.5c-5.1,0.3-10.6,0.6-15.5,2.3c-0.8-13.6,8.8-27.4,16.5-37.6c8.8-11.8,19-22.4,29.5-32.7
		c1.9-1.8-0.1-4.7-2.4-4.2c-19.8,4-38.6,13.9-54.7,25.8c-14.4,10.6-28,23.7-35.8,40c-12.7-19.1-26.7-39.5-49.5-46.4
		c-1.7-0.5-3.8,1.3-3.1,3.1c6.3,15.3,20.4,29.9,19.3,47.3c-3.6-1.6-7.3-2.2-11.5-1.4c-6.2,1.1-12,4.1-17.7-0.1
		c-4.3-3.1-7.8-5.8-13.2-3.9c-4.3,1.5-7.9,4.8-11.4,7.8c-8-12.3-1.6-27.8,5.3-39.3c7-11.9,16-22.3,24.4-33.2
		c1.1-1.5-0.4-3.9-2.2-3.8c-18,0.9-35.4,15.3-47.6,27.4c-8.2,8.1-18.2,19.8-21.4,32.2c-2.5-18.1,9.8-35.5,14.5-53.3
		c0.4-1.7-1.2-3.8-3.1-3.1c-13,4.9-22.9,17.3-31.8,27.5c-4.9,5.7-9.5,11.1-12.5,18.1c-2.6,6-4.4,12.4-6.6,18.6
		C1779,73.1,1757.7,52,1728,45.6c-2.4-0.5-4.2,2.3-2.4,4.2c11,11.1,26.1,18.1,30.5,34.3c1.3,4.7,2.3,9.8-3.1,11.7
		c-4.8,1.7-10.1,0.9-14.7,3c-1.5,0.7-3.1,2.1-4.7,2.4c-2.2,0.4-0.6,0.6-2.1-0.7c-1.4-1.2-1.7-2.9-3.7-3.6c-3.4-1.2-8,1.6-11.1,2.9
		c-2.7,1.1-8.8,5.3-11,2.3c-2.4-3.4,0.7-9.8,2.2-12.9c3.9-8.3,9.7-15.4,14.2-23.3c0.9-1.6-0.2-3.9-2.2-3.8
		c-20.1,1.1-33.5,13.5-43.9,29.1c-0.5-10.6-5.6-20.1-13.7-28.1c-5.6-5.6-11.8-11.2-18.7-15.1c-4.1-2.3-14.2-5.6-14.9,2.3
		c-0.3,2.9,1.7,6.4,2.8,9c2.1,4.9,4.3,9.7,6.3,14.6c1.5,3.6,3.4,7.6,3.6,11.5c0.1,3.8-1.3,8.6-4.2,11.2c-3.9,3.6-7.8,0.7-10.4-2.9
		c-0.7-1-2.2-1.8-3.4-0.9c-3.3,2.5-5.7,4.3-9.4,2c-2.3-1.4-4.3-2.9-7.1-3.5c-7.4-1.6-13,3.4-19.5,5.7c-1.8-6.6,2.3-15,5-20.4
		c3.8-7.7,8.6-15,14-21.8c13.7-17.4,33.7-26.1,54-33.3c2.4-0.8,2.4-4,0-4.8c-10.7-3.8-23.3,0.5-33.3,4.4
		c-11.7,4.5-23,10.4-33.8,16.8c-10.7,6.2-20.9,13.3-29.6,22.1c-6.4,6.5-12.7,14.6-15.1,23.6c-7.9-16.2-23.7-33.6-41.3-26.5
		c-2.1,0.8-2.4,3.2-0.6,4.6c7.6,5.9,13.3,16.2,15.7,25.4c0.6,2.5,2.1,7.7-0.8,9.4c-2.7,1.6-7.2-0.5-10.8-2.6
		c-0.1-0.2-0.2-0.4-0.4-0.5c-1.3-1.3-2.5-2-4.3-2.3c-1.2-0.2-2.2,0.4-2.7,1.2c-4.1-0.8-7.5-2.7-11.8-4.7c-4.4-2.1-10-3.3-14.8-1.9
		c-4.2,1.2-6.3,4.6-9.4,7.2c-4.8,4-11.1,4.1-17.1,4c-6.7-0.1-13.3-0.8-19.9-1.8c-2.5-0.4-5.1-0.7-7.6-1.3c-3.4-0.9-5.8-3-8.9-4.4
		c-8.3-3.8-19.1,1.1-27.5,4.6c1.4-21.8,28.6-34.6,42.5-48.2c1-1,1-3.3-0.5-3.9c-16.5-7.1-36.4,2.7-50.6,11.1
		c-7.6,4.5-14.9,9.6-21.4,15.5c-6.2,5.6-12.7,11.2-18.2,17.5c2.3-8.5,6.4-16.6,10.3-24.5c4.2-8.6,8.3-17.3,14-25
		c5.8-7.7,12.9-14.2,21.2-19.1c5.5-3.2,13.1-7,14.3-14c0.4-2.2-1.6-3.7-3.7-2.8c-22.1,9.9-43.5,21.5-62.3,36.9
		c-15.8,13-29,28.5-40.1,45.6c-1.1-6.8-4.9-13.4-8.9-18.8c-6.4-8.5-15.1-16.8-25.5-19.8c-1.8-0.5-3.6,1.3-3.1,3.1
		c3.4,12.2,11.8,24.4,10.4,37.3c-23.4-25.9-61.5-38.3-95.5-30.8c-2.8,0.6-2.1,4.8,0.7,4.9c20.8,0.6,44.9,11.3,54.8,30.7
		c-14.4,0.2-28.7,0-43.1,1.4c-9.3,0.9-19.2,1.1-28.2-2.2c-28.4-10.5,3.9-40.1,7.6-56.4c0.3-1.5-0.7-3.3-2.4-3.2
		c-6.4,0.6-10.9,3.9-14.9,8.8c-5.1,6.1-9.9,12.4-15.3,18.3c-5.5,6.1-10.8,12.2-14.5,19.6c-2.7,5.5-4.7,11.3-6.2,17.3
		c-4.2-2.2-8.7-2-13.4-0.8c5-12.8,8.8-26.2,15.9-38c8.3-13.9,21.4-24.1,32-36c1.6-1.8,0.1-4.9-2.4-4.2c-22.8,6.5-44,20.4-61.4,36.4
		c-8.5,7.9-16.5,16.8-22.1,27c-2.5,4.7-3,10.2-5.5,14.7c-2.6,4.6-8.3,4.3-13.2,5.1c-4.9-0.8-10.6-0.5-13.2-5.1
		c-2.6-4.5-3-10.1-5.6-14.7c-5.6-10.3-13.6-19.2-22.1-27c-17.4-16-38.7-29.9-61.5-36.4c-2.5-0.7-4,2.4-2.4,4.2
		c10.7,12,23.8,22.1,32.1,36c7.1,11.8,11,25.2,16,38c-4.7-1.2-9.2-1.4-13.4,0.8c-1.5-6-3.5-11.8-6.2-17.3
		c-3.7-7.4-9.1-13.5-14.6-19.6c-5.3-6-10.2-12.2-15.3-18.3c-4-4.8-8.6-8.2-15-8.8c-1.7-0.2-2.7,1.7-2.4,3.2
		c3.7,16.3,36,45.9,7.6,56.4c-9,3.3-18.9,3.1-28.2,2.2c-14.3-1.4-28.8-1.2-43.2-1.4c9.9-19.4,34-30.1,54.9-30.7
		c2.7-0.1,3.5-4.3,0.7-4.9c-34.1-7.4-72.3,5-95.7,30.8c-1.4-12.9,7-25.1,10.5-37.3c0.5-1.8-1.2-3.6-3.1-3.1
		c-10.4,3-19.2,11.3-25.6,19.8c-4,5.3-7.8,11.9-8.9,18.8c-11-17.1-24.3-32.6-40.2-45.6c-18.8-15.4-40.3-27-62.4-36.9
		c-2-0.9-4.1,0.6-3.7,2.8c1.2,6.9,8.9,10.7,14.4,14c8.3,4.9,15.5,11.4,21.3,19.1c5.8,7.7,9.9,16.4,14.1,25c3.8,7.9,8,16,10.3,24.5
		c-5.5-6.4-12-11.9-18.2-17.5c-6.5-5.9-13.9-11-21.4-15.5c-14.2-8.4-34.1-18.2-50.7-11.1c-1.5,0.7-1.5,2.9-0.5,3.9
		c13.9,13.6,41.2,26.4,42.6,48.2c-8.5-3.5-19.3-8.4-27.6-4.6c-3.1,1.4-5.5,3.6-8.9,4.4c-2.5,0.6-5.1,1-7.6,1.3
		c-6.6,1-13.3,1.7-20,1.8c-6,0.1-12.3-0.1-17.1-4c-3.2-2.6-5.3-6-9.5-7.2c-4.8-1.4-10.4-0.2-14.8,1.9c-4.3,2-7.7,3.9-11.9,4.7
		c-0.5-0.8-1.5-1.3-2.7-1.2c-1.8,0.3-3,1-4.3,2.3c-0.2,0.2-0.3,0.3-0.4,0.5c-3.6,2.1-8.1,4.2-10.8,2.6c-2.8-1.7-1.4-6.9-0.8-9.4
		c2.4-9.2,8.1-19.5,15.8-25.4c1.8-1.4,1.5-3.7-0.6-4.6c-17.6-7.1-33.5,10.4-41.4,26.5c-2.4-9-8.7-17.1-15.1-23.6
		c-8.7-8.9-19-15.9-29.7-22.1c-10.9-6.3-22.2-12.2-33.9-16.8c-10.1-3.9-22.7-8.1-33.4-4.4c-2.4,0.8-2.4,4,0,4.8
		c20.4,7.2,40.5,15.9,54.2,33.3c5.3,6.8,10.1,14.1,14,21.8c2.7,5.5,6.8,13.9,5.1,20.4c-6.6-2.2-12.2-7.2-19.6-5.7
		c-2.7,0.6-4.8,2-7.1,3.5c-3.7,2.3-6.1,0.5-9.4-2c-1.2-0.9-2.7-0.1-3.4,0.9c-2.7,3.6-6.5,6.6-10.4,2.9c-2.8-2.6-4.3-7.4-4.2-11.2
		c0.2-3.9,2.1-8,3.6-11.5c2-4.9,4.3-9.7,6.3-14.6c1.1-2.6,3.1-6,2.8-9c-0.7-7.8-10.8-4.6-15-2.3c-6.9,3.9-13.1,9.5-18.7,15.1
		c-8.1,8-13.2,17.5-13.7,28.1c-10.4-15.5-23.8-27.9-44-29.1c-1.9-0.1-3,2.2-2.2,3.8c4.5,7.9,10.3,15,14.3,23.3
		c1.5,3.1,4.6,9.5,2.2,12.9c-2.2,3.1-8.3-1.1-11-2.3c-3-1.3-7.6-4-11.1-2.9c-2,0.7-2.3,2.4-3.7,3.6c-1.5,1.3,0.1,1.1-2.1,0.7
		c-1.7-0.3-3.2-1.7-4.7-2.4c-4.6-2.1-10-1.4-14.8-3c-5.5-1.9-4.4-7-3.1-11.7c4.4-16.2,19.6-23.2,30.6-34.3c1.8-1.8,0-4.7-2.4-4.2
		c-29.8,6.4-51.1,27.5-69.3,50.6c-2.2-6.2-4-12.5-6.6-18.6c-3.1-7-7.6-12.4-12.6-18.1c-8.9-10.2-18.9-22.5-31.9-27.5
		c-1.8-0.7-3.5,1.4-3.1,3.1c4.7,17.8,17,35.2,14.5,53.3c-3.2-12.4-13.3-24-21.5-32.2c-12.2-12.1-29.7-26.5-47.7-27.4
		c-1.8-0.1-3.3,2.2-2.2,3.8c8.3,10.9,17.4,21.3,24.4,33.2c6.8,11.6,13.3,27,5.3,39.3c-3.5-3-7.1-6.3-11.4-7.8
		c-5.4-1.9-8.9,0.8-13.2,3.9c-5.7,4.2-11.6,1.2-17.8,0.1c-4.2-0.8-7.9-0.2-11.5,1.4c-1-17.4,13-32,19.4-47.3
		c0.8-1.8-1.4-3.6-3.1-3.1c-22.9,6.9-36.9,27.4-49.7,46.4c-7.8-16.3-21.4-29.4-35.9-40C56.2,47,37.4,37.2,17.6,33.2
		c-2.3-0.5-4.3,2.3-2.4,4.2C25.7,47.6,35.9,58.2,44.7,70c7.7,10.2,17.4,24,16.5,37.6c-4.9-1.7-10.5-2-15.6-2.3
		c-4.1-0.3-8.2-0.4-12.2-0.5c-3.3-0.1-7.2-0.7-10.4,0c-2.3,0.5-3.5,1.5-6,1.5c-3,0-4.2-1.6-6.9-2.6c-2.8-1-6-2-8.9-2.8
		c-0.5-0.1-0.9-0.2-1.3-0.3v5.2c0.2,0,0.3,0,0.5,0.1c2.1,0.6,4,1.4,6.1,2.1c2.8,0.8,5,2.7,7.8,3.6c2.2,0.8,3.9,0.4,6-0.3
		c3.4-1.1,5.1-1.6,8.6-1.5c5.6,0.1,11.1,0.2,16.7,0.5c5.3,0.3,11.5,0.5,16.4,3c1.3,0.7,3.4,0.2,3.7-1.5c2.7-15.2-6.4-30.2-14.9-42
		c-7.7-10.6-16.5-20.4-25.7-29.7c15.1,4.5,29.3,12.1,42.1,21.1c15.6,11,31,25.3,38.2,43.4c0.8,2,3.3,2.5,4.6,0.6
		c11.6-17.4,24-37.5,43.8-46c-7.8,15.5-19.8,29.6-16.7,48.1c0.3,1.6,2.4,2.3,3.7,1.5c5.4-3.3,9.5-3.1,15.4-1.6c3.9,1,8.2,1.9,12.2,1
		c3.9-0.9,6.2-4.6,9.8-6c5.8-2.3,12,5.1,16,8.3c1,0.8,2.6,1.1,3.5,0c19.6-24.5-7.6-55.4-24-75.9c14.1,3.2,27.8,14.8,37.5,24.2
		C221.6,69,237,86.1,232.5,102c-0.8,2.7,3.2,4.4,4.6,1.9c6.3-10.9,7.1-22.5,3.7-34.5c-3-10.5-8.1-20.1-11.6-30.3
		c9.8,5.5,17.9,15.8,25,23.9c4.9,5.6,9.3,11.1,12.2,18c2.8,6.8,4.6,13.9,7.3,20.8c0.8,2.1,3.2,2.4,4.6,0.6
		c16-20.7,34.2-40.4,59-49.2c-9.6,7.9-19.6,15.1-23.5,27.8c-1.5,4.7-3.1,11,0.1,15.5c2.8,4,8.3,4.7,12.8,5.3
		c3.7,0.5,6.6,1.1,9.9,2.8c2.3,1.1,5.3,2.8,7.9,1.5c2-1,2.4-4.3,4.6-4.5c2.5-0.2,6.8,2.6,9,3.5c3.5,1.5,8.2,4.5,12,2.4
		c3.9-2.2,4.8-6.9,4.2-11.1c-1.5-10.9-9-19.9-15-29c19.2,3.2,31,18.7,40.5,35.1c1.4,2.5,5.2,0.8,4.6-1.9c-4-16.8,5.3-29.2,17.3-39.7
		c4.1-3.6,8.6-7.5,13.6-9.8c1-0.5,4.7-2.2,5.7-0.9c0.5,0.7-1.5,4.6-1.7,5.3c-3.8,9.5-11.5,20.6-10.9,31.2c0.3,5.9,3.3,13,9,15.6
		c5.3,2.4,9.8-0.4,13.2-4.2c4.6,3,8.4,3.6,13.5,0.2c8.9-5.9,15.5,1.9,24.3,3.8c1,0.2,2.3-0.1,2.8-1.2c3.3-7,0.9-15-1.9-21.7
		c-3.9-9.3-9.4-18-15.5-26c-12.5-16.5-29.9-26-48.6-33.4c7.3,0.4,14.8,3.2,21.1,5.6c11,4.2,21.5,9.8,31.8,15.7
		C487.6,47,497,53.2,505.2,61c9.1,8.6,18.4,20.1,16.7,33.4c-0.3,2.9,4.2,3.3,4.9,0.7c3.9-13.8,18.1-36.9,34.9-34.6
		c-7.8,7.7-14,19.1-15.1,29.5c-0.4,4.2,0.3,9.1,4.7,10.9c5,2.1,11-0.7,15.9-3.5c5.2,0.1,9.8-1.2,14.5-3.7c4.8-2.6,11.4-5.8,16.7-2.7
		c3.8,2.2,6,6.2,10.1,8.2c4.5,2.2,9.7,2.5,14.7,2.5c6.2,0,12.4-0.6,18.5-1.4c4.7-0.6,9.9-1,14.3-2.7c3.3-1.3,6-4,9.6-4.6
		c2.9-0.5,5.8,0.4,8.6,1.2c5.6,1.6,11,3.7,16.4,5.7c1.6,0.6,3.1-0.9,3.2-2.4c1.7-24.6-24.8-38.3-41.1-52.7
		c14.8-3.7,32.9,6.5,44.6,13.8c6.5,4,12.7,8.4,18.3,13.5c8.4,7.6,17.5,15.1,23.5,24.9c1.2,2,4.9,1.3,4.7-1.3
		c-0.8-10.8-5-20.7-9.6-30.4c-4.5-9.4-8.8-19.1-14.6-27.8c-5.2-7.8-11.6-14.8-19.1-20.4c-3.6-2.7-10-5.2-14.3-8.7
		c18.9,8.9,37.1,19.2,53.3,32.4c18.2,14.9,33,33.1,44.8,53.5c1.4,2.4,5.6,0.8,4.6-1.9c-3.4-9.2,2.4-19.3,8-26.3
		c4.6-5.9,10.5-11.7,17.4-15.1c-4.7,13.1-12.2,25.7-7.9,39.9c0.5,1.6,2.9,2.6,4.2,1.1c18.1-22.3,47.2-35.5,75.9-35.3
		c-18.3,5.2-35.2,16.9-42.4,34.5c-0.6,1.6,1,3.1,2.4,3.2c17.1,0.3,34,0.6,51,1.8c10.1,0.7,21.6,0.1,30.6-5
		c9.4-5.3,12.5-15.4,9.1-25.4c-3.7-11.2-12.9-19.9-17-30.8c5.1,2.1,8.4,7.1,11.7,11.4c4,5.2,8.4,9.9,12.7,14.8
		c9.7,10.9,15.9,22.3,19,36.7c0.4,1.9,2.9,2.3,4.2,1.1c4.9-4.6,11.2-2.4,16.8-0.4c2.3,0.8,3.6-1.9,2.8-3.7
		c-6.3-14.8-10.3-30.9-19-44.7c-6.8-10.7-16.2-19.3-25-28.3c20.5,7.8,39.6,21.3,54.7,36.6c8.3,8.3,16.3,17.9,19.7,29.4
		c1.3,4.3,2.8,9.2,6.9,11.6c3.9,2.3,8.8,1.8,13.1,2.9c4.3-1.1,9.2-0.6,13.1-2.9c4.1-2.4,5.6-7.3,6.9-11.6
		c3.3-11.5,11.3-21,19.6-29.4c15.1-15.3,34.2-28.8,54.6-36.6c-8.8,9-18.2,17.6-25,28.3c-8.7,13.7-12.6,29.8-18.9,44.7
		c-0.8,1.8,0.5,4.5,2.8,3.7c5.6-1.9,11.9-4.2,16.8,0.4c1.3,1.2,3.8,0.8,4.2-1.1c3.1-14.4,9.2-25.7,19-36.7
		c4.3-4.9,8.7-9.6,12.7-14.8c3.3-4.3,6.6-9.4,11.7-11.4c-4,11-13.2,19.7-16.9,30.8c-3.3,10-0.2,20.2,9.1,25.4c9,5.1,20.4,5.7,30.5,5
		c17-1.2,33.8-1.4,50.9-1.8c1.5,0,3-1.6,2.4-3.2c-7.2-17.6-24-29.4-42.3-34.5c28.7-0.2,57.7,13,75.7,35.3c1.2,1.5,3.7,0.5,4.2-1.1
		c4.3-14.2-3.3-26.9-7.9-39.9c6.9,3.3,12.8,9.2,17.4,15.1c5.6,7.1,11.3,17.1,7.9,26.3c-1,2.7,3.2,4.3,4.6,1.9
		c11.8-20.3,26.6-38.5,44.7-53.5c16.1-13.2,34.4-23.5,53.2-32.4c-4.3,3.5-10.7,6-14.3,8.7c-7.5,5.7-13.9,12.6-19,20.4
		c-5.8,8.7-10.1,18.4-14.6,27.8c-4.6,9.7-8.7,19.6-9.6,30.4c-0.2,2.6,3.4,3.2,4.6,1.3c6-9.8,15.1-17.2,23.5-24.9
		c5.6-5.1,11.8-9.6,18.3-13.5c11.7-7.3,29.8-17.5,44.5-13.8c-16.3,14.4-42.7,28.1-41,52.7c0.1,1.5,1.5,3,3.2,2.4
		c5.4-2.1,10.8-4.2,16.3-5.7c2.8-0.8,5.7-1.7,8.6-1.2c3.6,0.6,6.2,3.4,9.5,4.6c4.4,1.7,9.6,2.1,14.3,2.7c6.1,0.8,12.3,1.4,18.5,1.4
		c4.9,0,10.1-0.3,14.6-2.5c4.1-2,6.3-6,10.1-8.2c5.3-3.1,11.9,0.2,16.7,2.7c4.7,2.5,9.2,3.7,14.4,3.7c4.8,2.8,10.8,5.5,15.8,3.5
		c4.4-1.8,5.1-6.7,4.7-10.9c-1.1-10.4-7.3-21.8-15-29.5c16.8-2.2,30.9,20.8,34.8,34.6c0.7,2.6,5.2,2.2,4.9-0.7
		c-1.6-13.3,7.7-24.7,16.7-33.4c8.2-7.8,17.6-14.1,27.4-19.7c10.2-5.9,20.7-11.5,31.7-15.7c6.3-2.5,13.8-5.2,21.1-5.6
		c-18.7,7.4-35.9,16.9-48.5,33.4c-6.1,8-11.6,16.7-15.4,26c-2.8,6.7-5.2,14.8-1.9,21.7c0.5,1,1.8,1.4,2.8,1.2
		c8.7-1.9,15.4-9.7,24.2-3.8c5,3.3,8.8,2.8,13.4-0.2c3.4,3.8,7.9,6.6,13.2,4.2c5.7-2.6,8.6-9.7,9-15.6c0.6-10.5-7.1-21.7-10.9-31.2
		c-0.3-0.7-2.2-4.6-1.7-5.3c1-1.2,4.6,0.5,5.6,0.9c5,2.3,9.5,6.2,13.6,9.8c12,10.6,21.2,22.9,17.2,39.7c-0.6,2.7,3.1,4.4,4.6,1.9
		c9.4-16.5,21.2-31.9,40.4-35.1c-5.9,9.1-13.4,18.2-14.9,29c-0.6,4.1,0.3,8.8,4.2,11.1c3.7,2.2,8.4-0.9,11.9-2.4
		c2.1-0.9,6.5-3.7,9-3.5c2.2,0.2,2.6,3.5,4.6,4.5c2.5,1.3,5.6-0.4,7.9-1.5c3.4-1.7,6.2-2.3,9.9-2.8c4.5-0.6,9.9-1.3,12.8-5.3
		c3.1-4.4,1.5-10.7,0.1-15.5c-3.9-12.7-13.9-19.9-23.4-27.8c24.7,8.8,42.9,28.5,58.8,49.2c1.3,1.8,3.7,1.5,4.5-0.6
		c2.7-6.8,4.5-14,7.3-20.8c2.9-7,7.3-12.4,12.1-18c7.1-8.1,15.1-18.4,24.9-23.9c-3.5,10.3-8.6,19.9-11.6,30.3
		c-3.4,12-2.6,23.6,3.7,34.5c1.4,2.5,5.3,0.8,4.6-1.9c-4.5-15.9,10.9-33,21.2-43.1c9.6-9.4,23.2-21,37.4-24.2
		c-16.3,20.4-43.5,51.4-23.9,75.9c0.9,1.1,2.6,0.8,3.5,0c4-3.2,10.2-10.6,16-8.3c3.6,1.4,5.8,5.1,9.8,6c4,0.9,8.3,0,12.1-1
		c5.8-1.4,10-1.7,15.4,1.6c1.3,0.8,3.4,0.1,3.7-1.5c3.1-18.5-8.9-32.6-16.6-48.1c19.8,8.6,32.1,28.7,43.7,46
		c1.3,1.9,3.8,1.4,4.6-0.6c7.2-18.1,22.6-32.4,38.1-43.4c12.7-9,26.9-16.7,42-21.1c-9.2,9.3-18,19-25.6,29.7
		c-8.5,11.8-17.6,26.8-14.9,42c0.3,1.7,2.4,2.2,3.7,1.5c4.8-2.5,11-2.7,16.3-3c5.5-0.3,11.1-0.4,16.7-0.5c3.5-0.1,5.1,0.4,8.5,1.5
		c2.2,0.7,3.8,1.1,6,0.3c2.7-0.9,5-2.8,7.8-3.6c2-0.6,4-1.5,6.1-2.1c0.2,0,0.3-0.1,0.5-0.1v-5.2
		C2072.8,100.8,2072.4,100.9,2071.9,101z"/>
</g>
<path d="M41.2,53c6.2,3.9,12.3,8,17.5,13.2c5.1,5.1,9.3,11.4,9.9,18.7c0.1,1.6,2.6,1.6,2.5,0c-1-12.5-10.7-21.6-20.2-28.5
	c-2.7-2-5.5-3.8-8.4-5.6C41.1,50,39.9,52.2,41.2,53L41.2,53z"/>
<path d="M193.2,53c4.8,3,8.7,7,11.6,11.9c2.8,4.8,4.5,10,5.8,15.3c0.4,1.6,2.8,0.9,2.4-0.7c-1.4-5.6-3.3-11.2-6.2-16.2
	c-3.1-5.1-7.3-9.3-12.3-12.5C193.1,50,191.9,52.2,193.2,53L193.2,53z"/>
<path d="M127.1,94.3c1.1-3.8,3.5-7.2,5.9-10.3c2.5-3.2,5.2-6.1,7.8-9.2c1-1.2-0.7-3-1.8-1.8c-2.7,3.3-5.6,6.4-8.2,9.7
	c-2.5,3.3-4.9,6.8-6.1,10.8C124.2,95.2,126.6,95.8,127.1,94.3L127.1,94.3z"/>
<path d="M242,58.8c7.3,7.7,10.5,17.7,10.6,28.1c0,1.6,2.5,1.6,2.5,0c-0.1-11.1-3.6-21.7-11.4-29.9C242.6,55.9,240.9,57.7,242,58.8
	L242,58.8z"/>
<path d="M313.2,70.9c-6.6,4.1-11.7,11.2-13.6,18.7c-0.4,1.6,2,2.2,2.4,0.7c1.7-6.9,6.4-13.5,12.4-17.3
	C315.9,72.2,314.6,70,313.2,70.9L313.2,70.9z"/>
<path d="M372.2,81c3.4,2.4,6.3,5.4,8.3,9c2,3.5,3.2,7.3,4.1,11.2c0.4,1.6,2.8,0.9,2.4-0.7c-1-4.2-2.3-8.4-4.5-12.1
	c-2.3-3.9-5.5-7-9.1-9.7C372.2,77.9,371,80.1,372.2,81L372.2,81z"/>
<path d="M417.1,91.6c-3.3-8.2,2.2-16.6,6.9-23c1-1.3-1.2-2.5-2.2-1.3c-5.1,7-10.7,16.1-7.1,25C415.3,93.8,417.7,93.1,417.1,91.6
	L417.1,91.6z"/>
<path d="M486.2,56c4.6,3,8.1,7.1,10.8,11.8c2.5,4.4,4.4,9.2,6.8,13.7c0.7,1.4,2.9,0.2,2.2-1.3c-2.5-4.7-4.4-9.7-7.1-14.4
	c-2.8-4.9-6.6-9-11.3-12.1C486.2,53,484.9,55.2,486.2,56L486.2,56z"/>
<path d="M545.8,73.3c-2.4,5.3-6.2,9.8-8.1,15.3c-0.5,1.5,1.9,2.2,2.4,0.7c1.8-5.3,5.5-9.6,7.9-14.7c0.3-0.6,0.2-1.3-0.4-1.7
	C547,72.6,546.1,72.7,545.8,73.3L545.8,73.3z"/>
<path d="M684.2,61c8.4,5.5,15.6,12.5,21.6,20.6c1,1.3,3.1,0,2.2-1.3c-6.3-8.4-13.7-15.7-22.4-21.4C684.2,58,682.9,60.2,684.2,61
	L684.2,61z"/>
<path d="M737.2,51c4.4,2.9,8.5,6.6,11.8,10.7c3,3.7,6.1,9.1,2.7,13.6c-1,1.3,1.2,2.5,2.2,1.3c3.8-5,1-11.2-2.3-15.6
	c-3.6-4.7-8.2-8.8-13.1-12.1C737.2,48,735.9,50.1,737.2,51L737.2,51z"/>
<path d="M804,62.1c-7.5,6.1-9.1,17.4-6.3,26.2c0.5,1.5,2.9,0.9,2.4-0.7c-2.6-8.1-1.2-18.2,5.7-23.8C807,62.8,805.2,61.1,804,62.1
	L804,62.1z"/>
<path d="M848.5,67.8c-5.3,2-9.6,6.4-12.7,11c-2.9,4.4-5.5,10.1-4.1,15.5c0.4,1.6,2.8,0.9,2.4-0.7c-1.2-4.7,1.3-9.8,3.9-13.6
	c2.7-4,6.6-8.2,11.2-9.9C850.7,69.6,850.1,67.2,848.5,67.8L848.5,67.8z"/>
<path d="M947.1,78.6c-1.1-6.6-4.1-12.6-6-19c-0.5-1.5-2.9-0.9-2.4,0.7c1.9,6.4,4.9,12.4,6,19C944.9,80.9,947.3,80.2,947.1,78.6
	L947.1,78.6z"/>
<path d="M996.1,73.6c-2.9-11.3-15.7-15.5-22.1-24.3c-0.9-1.3-3.1,0-2.2,1.3c3.2,4.5,7.8,7.7,12,11.1c4.1,3.4,8.5,7.2,9.8,12.6
	C994.1,75.8,996.5,75.2,996.1,73.6L996.1,73.6z"/>
<path d="M76.5,104.3c4.6,4.6,8.8,9.6,14.2,13.2c1.3,0.9,2.7-0.3,2.8-1.6c0.5-4,0.8-8,0.4-12c-0.5-4.2-1.7-8.1-3.4-11.9
	c-1-2.2-4.3-0.3-3.2,1.9c1.6,3.4,2.7,7,3,10.7c0.3,3.8,0,7.5-0.4,11.3c0.9-0.5,1.9-1.1,2.8-1.6c-5.1-3.5-9.1-8.3-13.4-12.6
	C77.5,99.9,74.8,102.6,76.5,104.3L76.5,104.3z"/>
<path d="M120.1,103.5c-1.5,4.6-3.6,9.2-3,14.2c0.1,1.1,1.1,2.2,2.4,1.8c4-1.3,7.6-3.4,10.7-6.2c0.8-0.7,0.7-2,0-2.7
	c-0.8-0.8-1.9-0.7-2.7,0c-2.6,2.3-5.8,4.1-9.1,5.2c0.8,0.6,1.6,1.2,2.4,1.8c-0.6-4.6,1.4-8.9,2.8-13.2c0.3-1-0.4-2-1.3-2.3
	C121.3,101.9,120.4,102.5,120.1,103.5L120.1,103.5z"/>
<path d="M158.1,116.5c0.7,4.6,3.5,8.6,8.4,9.2c1,0.1,2.1-0.2,2.3-1.3c0.3-1.6,1.5-2.9,1.9-4.6c-1,0.3-2.1,0.6-3.1,0.8
	c2.6,2.7,6.2,5.1,10.1,4.9c4.2-0.2,6.9-3.3,8.1-7.1c0.7-2.3-2.9-3.3-3.6-1c-0.8,2.4-2.3,4.4-5,4.3c-2.7-0.1-5.2-1.9-7-3.8
	c-0.9-1-2.9-0.6-3.1,0.8c-0.3,1.6-1.5,3-1.9,4.6c0.8-0.4,1.5-0.9,2.3-1.3c-1.6-0.2-3-0.7-4.1-2c-1-1.3-1.5-3-1.7-4.6
	c-0.2-1-1.4-1.6-2.3-1.3C158.3,114.4,157.9,115.5,158.1,116.5L158.1,116.5z"/>
<path d="M209.3,86.9c3.5,6.2,4.2,13.6,8,19.7c0.7,1.1,2,1.2,2.9,0.4c4-3.6,5.1-8.9,4.5-14c-0.1-1-0.8-1.9-1.9-1.9
	c-0.9,0-2,0.9-1.9,1.9c0.4,4.2-0.1,8.4-3.4,11.4c1,0.1,2,0.3,2.9,0.4c-3.8-6.1-4.5-13.5-8-19.7C211.3,82.9,208.1,84.8,209.3,86.9
	L209.3,86.9z"/>
<path d="M249.5,96.3c1.7,1.9,3.5,3.9,5,5.8c1.4,1.9,2.8,4.1,3.5,6.3c0.4,1.1,1.7,1.8,2.8,1.1c5.1-3.1,4.2-9.5,4-14.5
	c0-1-0.8-1.9-1.9-1.9c-1,0-1.9,0.9-1.9,1.9c0.1,2.3,0.3,4.7,0.1,7c0,0.1,0,0.2,0,0.3c-0.1,0.5,0-0.2,0,0.1c0,0.3-0.1,0.5-0.2,0.8
	c-0.1,0.3-0.1,0.5-0.2,0.8c0,0.1-0.1,0.3-0.1,0.4c0.1-0.2,0.1-0.2,0,0c-0.1,0.2-0.2,0.5-0.4,0.7c0,0-0.3,0.4-0.1,0.2
	c0.1-0.2-0.2,0.2-0.2,0.2c-0.2,0.2-0.3,0.3-0.5,0.5c-0.1,0.1-0.3,0.2-0.1,0.1c-0.1,0.1-0.3,0.2-0.4,0.3c0.9,0.4,1.8,0.7,2.8,1.1
	c-1.7-5.5-5.8-9.5-9.4-13.7c-0.7-0.8-2-0.7-2.7,0C248.8,94.4,248.9,95.5,249.5,96.3L249.5,96.3z"/>
<path d="M292.1,97.5c-1.5,6-1.2,12.2-0.9,18.4c0.1,1.3,1.1,2,2.4,1.8c5.4-0.8,10.3-4.2,13.7-8.3c0.6-0.8,0.8-1.9,0-2.7
	c-0.7-0.7-2-0.8-2.7,0c-3,3.8-7.2,6.7-12,7.4c0.8,0.6,1.6,1.2,2.4,1.8c-0.2-5.8-0.6-11.7,0.8-17.4C296.3,96.1,292.7,95.1,292.1,97.5
	L292.1,97.5z"/>
<path d="M387.1,108.5c1.2,3.1,3.4,6,6.2,7.8c3.1,2.1,6.6,1.3,8.4-2c-0.9,0.2-1.7,0.4-2.6,0.7c2.9,2.1,7.1,5.1,10.7,2.7
	c1.3-0.9,2.3-2.2,3.2-3.5c1.3-1.7,2.6-3.4,4.2-4.9c1.7-1.7-0.9-4.3-2.7-2.7c-1.5,1.4-2.7,3-4,4.6c-0.8,1.1-1.5,2.2-2.5,3.1
	c-0.3,0.3-0.4,0.4-0.8,0.5c-0.3,0.1-0.5,0.1-1,0c-2-0.5-3.7-1.9-5.3-3c-0.8-0.6-2.1-0.1-2.6,0.7c-0.2,0.4-0.5,0.9-0.8,1.1
	c-0.3,0.2-0.4,0.3-0.8,0.2c-0.6-0.1-1.5-0.6-2.1-1.1c-1.6-1.3-3.2-3.4-4-5.2c-0.4-0.9-1.2-1.6-2.3-1.3
	C387.5,106.4,386.7,107.5,387.1,108.5L387.1,108.5z"/>
<path d="M498.3,93.9c1.3,2.6,2.7,5.2,4.3,7.6c0.8,1.3,1.8,2.8,3.2,3.6c3.5,1.9,5.3-2.6,6.2-5.1c0.9-2.5,1.8-5.1,2.7-7.6
	c0.3-1-0.4-2.1-1.3-2.3c-1-0.3-2,0.4-2.3,1.3c-0.8,2.1-1.5,4.3-2.3,6.5c-0.3,0.8-0.5,1.6-0.9,2.4c0.3-0.5,0,0-0.1,0.1
	c-0.1,0.1-0.1,0.3-0.2,0.4c-0.1,0.3-0.3,0.5-0.4,0.7c-0.1,0.1-0.1,0.2-0.2,0.3c-0.1,0.2,0.2-0.2,0.2-0.2c0,0-0.1,0.1-0.1,0.1
	c-0.1,0.1-0.1,0.1-0.2,0.2c-0.2,0.2,0.5-0.3,0.1-0.1c-0.4,0.2,0.4-0.1,0.2-0.1c-0.3,0.1,0.3,0,0.3,0c-0.4,0,0.1,0,0.2,0.1
	c0,0-0.1,0-0.1,0c-0.2-0.1,0.1-0.1,0.2,0.1c0,0-0.2-0.1-0.3-0.1c-0.3-0.2,0,0,0.1,0.1c-0.2-0.2-0.4-0.4-0.6-0.6
	c-0.1-0.1-0.2-0.2-0.3-0.4c-0.3-0.4,0.2,0.3-0.1-0.1c-0.3-0.4-0.5-0.7-0.8-1.1c-1.6-2.5-3-5.1-4.3-7.8c-0.5-0.9-1.7-1.2-2.6-0.7
	C498,91.9,497.8,93,498.3,93.9L498.3,93.9z"/>
<path d="M530.3,105.9c1.2,2,2.2,4.1,3.4,6c1.4,2.1,3.1,3.8,5.5,4.8c0.7,0.3,1.8-0.2,2.1-0.9c1.7-3.7,1.5-7.8,1.4-11.9
	c0-1-0.8-1.9-1.9-1.9c-1,0-1.9,0.8-1.9,1.9c0,1.8,0.1,3.7,0,5.6c0,0.4-0.1,0.9-0.1,1.3c0,0.1,0,0.2,0,0.3c0-0.2,0-0.2,0,0
	c0,0.2-0.1,0.4-0.1,0.6c-0.1,0.4-0.2,0.8-0.3,1.2c-0.1,0.2-0.1,0.4-0.2,0.6c-0.1,0.2-0.1,0.2,0,0.1c0,0.1-0.1,0.2-0.1,0.3
	c0.7-0.3,1.4-0.6,2.1-0.9c0.4,0.2,0,0,0,0c-0.1-0.1-0.2-0.1-0.3-0.2c-0.2-0.1-0.4-0.2-0.6-0.4c-0.1-0.1-0.2-0.1-0.3-0.2
	c-0.2-0.1,0.2,0.2,0,0c-0.2-0.2-0.4-0.3-0.5-0.5c-0.2-0.2-0.3-0.4-0.5-0.5c-0.1-0.1-0.2-0.2-0.2-0.3c-0.1-0.1-0.3-0.4,0,0
	c-0.3-0.4-0.6-0.8-0.9-1.3c-1.1-1.8-2.1-3.8-3.2-5.6c-0.5-0.8-1.7-1.2-2.6-0.7C530.1,103.9,529.7,105,530.3,105.9L530.3,105.9z"/>
<path d="M581.1,101.5c-0.7,4.4,2.2,7.8,5.9,9.9c0.7,0.4,1.7,0.3,2.3-0.3c0.9-1,2.1-1.7,3-2.7c-0.9,0-1.8,0-2.7,0
	c2.4,2.5,6.3,5.1,9.8,3.1c2.8-1.7,3.7-5.4,3.4-8.4c-0.1-1-0.8-1.9-1.9-1.9c-0.9,0-2,0.9-1.9,1.9c0.1,1.3,0.1,2.2-0.3,3.3
	c-0.2,0.6-0.2,0.6-0.5,1.2c-0.1,0.1-0.2,0.3-0.1,0.1c-0.1,0.1-0.1,0.2-0.2,0.3c-0.1,0.1-0.2,0.2-0.2,0.2c-0.3,0.2,0.1-0.1-0.1,0.1
	c-0.1,0.1-0.2,0.1-0.3,0.2c-0.2,0.1,0.3-0.1,0,0c-0.1,0-0.8,0.2-0.4,0.1c-0.7,0.1-0.6,0-1.2-0.1c-1.2-0.4-2.5-1.5-3.5-2.6
	c-0.7-0.7-2-0.7-2.7,0c-0.9,1-2.1,1.7-3,2.7c0.8-0.1,1.5-0.2,2.3-0.3c-2-1.1-4.5-3.2-4.1-5.6c0.2-1-0.3-2-1.3-2.3
	C582.5,99.9,581.2,100.5,581.1,101.5L581.1,101.5z"/>
<path d="M700.5,92.3c3.7,3.5,7.6,7.1,11.9,9.7c1.8,1.1,3.8,2.2,5.9,2.2c2.2,0.1,3.9-1.4,4.5-3.5c0.4-1.4,0.3-2.9,0.2-4.3
	c-0.2-2.4-0.8-4.7-1.4-6.9c-0.6-2.3-4.3-1.3-3.6,1c0.5,1.9,1,3.7,1.2,5.7c0-0.3,0,0.1,0,0.2c0,0.2,0,0.3,0,0.5c0,0.3,0,0.6,0.1,1
	c0,0.3,0,0.6,0,0.9c0,0.2-0.1,1,0,0.4c-0.1,0.4-0.2,0.8-0.3,1.2c0.2-0.6,0-0.1-0.1,0.1c-0.1,0.2-0.3,0.2,0.1-0.1
	c-0.1,0.1-0.1,0.1-0.2,0.2c-0.4,0.3,0.3-0.3,0,0c-0.1,0.1-0.1,0.1-0.2,0.1c0.1,0,0.4-0.1,0.2-0.1c-0.2,0-0.7,0,0,0.1
	c-0.2,0-0.3,0-0.5,0c-0.2,0-0.6-0.1-0.1,0c-0.2,0-0.4-0.1-0.6-0.1c-0.4-0.1-0.8-0.2-1.2-0.4c0.6,0.2-0.2-0.1-0.3-0.2
	c-0.2-0.1-0.4-0.2-0.6-0.3c-0.5-0.3-1-0.5-1.4-0.8c-1-0.6-1.9-1.2-2.8-1.9c-0.2-0.2-0.4-0.3-0.6-0.5c0.3,0.3-0.1-0.1-0.1-0.1
	c-0.1-0.1-0.3-0.2-0.4-0.3c-0.5-0.4-0.9-0.8-1.4-1.1c-2-1.6-3.9-3.4-5.7-5.1C701.4,88,698.8,90.6,700.5,92.3L700.5,92.3z"/>
<path d="M750.3,83.9c0,0.1,0.3,0.7,0.2,0.4c0.1,0.2,0.2,0.5,0.3,0.7c0.1,0.4,0.3,0.8,0.4,1.3c0.2,0.9,0.4,1.9,0.6,2.8
	c0.3,1.9,0.5,3.8,1.1,5.7c0.5,1.9,1.3,3.7,2.7,5.1c1.5,1.6,3.7,2.5,5.9,2.8c1.1,0.2,1.9-0.3,2.3-1.3c0.8-2.3,2.4-4.1,3.5-6.2
	c1.4-2.4,2-4.9,1.6-7.7c-0.1-1-1.4-1.6-2.3-1.3c-1.1,0.3-1.4,1.3-1.3,2.3c0.3,2.1-0.6,3.9-1.7,5.7c-1.3,2-2.6,4-3.4,6.3
	c0.8-0.4,1.5-0.9,2.3-1.3c-1-0.1-2.2-0.4-2.8-0.8c-0.2-0.1-0.3-0.2-0.5-0.3c-0.1,0-0.6-0.5-0.3-0.2c-0.3-0.3-0.6-0.5-0.9-0.8
	c-0.2-0.3,0.1,0.1-0.2-0.2c-0.1-0.2-0.2-0.3-0.3-0.5c-0.1-0.2-0.2-0.4-0.3-0.6c0-0.1-0.2-0.5-0.1-0.2c-0.3-0.8-0.6-1.7-0.8-2.5
	c-0.8-3.7-0.9-7.5-2.6-10.9c-0.4-0.9-1.7-1.2-2.6-0.7C750,81.9,749.8,83,750.3,83.9L750.3,83.9z"/>
<path d="M796.1,92.5c0.6,3.8,1.4,8.2,3.8,11.4c1.1,1.6,2.8,2.8,4.8,2.7c2.6-0.1,4.7-2.1,6.3-4c-0.9,0-1.8,0-2.7,0
	c2.6,3.1,6.2,4.2,9.9,2.3c3.2-1.6,5.6-4.5,8.7-6.3c2.1-1.2,0.2-4.4-1.9-3.2c-2.7,1.5-4.8,3.8-7.4,5.6c-0.9,0.6-2,1.3-3.2,1.3
	c-1.5,0-2.5-1.2-3.4-2.2c-0.6-0.7-2-0.7-2.7,0c-0.7,0.9-1.5,1.8-2.4,2.4c-0.6,0.4-1,0.6-1.5,0.5c-0.2,0,0.3,0.1-0.1,0
	c-0.1,0-0.5-0.2-0.2-0.1c-0.4-0.2-0.4-0.2-0.5-0.3c-0.6-0.5-0.8-0.9-1.2-1.6c-1.6-2.8-2.2-6.3-2.7-9.4c-0.2-1-1.4-1.6-2.3-1.3
	C796.3,90.4,795.9,91.4,796.1,92.5L796.1,92.5z"/>
<path d="M941,88c0,2.2-0.3,4.4-0.3,6.6c-0.1,2.5-0.2,5.3,0.7,7.6c0.4,1.2,1.1,2.2,2.3,2.7c1.2,0.6,2.7,0.9,4,0.4
	c2.5-0.8,4.1-3.1,5.2-5.4c1.2-2.4,2.1-5,2.8-7.6c0.6-2.3-3-3.3-3.6-1c-0.2,0.9-0.5,1.7-0.8,2.6c-0.2,0.5-0.3,1-0.5,1.4
	c-0.1,0.3-0.2,0.5-0.3,0.8c-0.1,0.1-0.1,0.3-0.2,0.4c0.2-0.4-0.1,0.2-0.1,0.2c-0.5,1.1-1,2.1-1.6,3c-0.1,0.1-0.5,0.7-0.2,0.3
	c-0.2,0.2-0.3,0.4-0.5,0.6c-0.2,0.2-0.4,0.3-0.5,0.5c-0.1,0.1-0.3,0.2,0.1,0c-0.1,0.1-0.3,0.2-0.4,0.3c-0.1,0-0.2,0.1-0.2,0.1
	c-0.3,0.2,0.4-0.1,0,0c-0.2,0-0.4,0.1-0.6,0.2c0.6-0.1,0,0-0.2,0c-0.4,0,0.4,0.1,0,0c-0.1,0-0.3-0.1-0.4-0.1c-0.4-0.1,0.3,0.2-0.1,0
	c-0.1-0.1-0.2-0.1-0.3-0.2c-0.5-0.2,0.1,0.1,0.1,0.1c0,0-0.2-0.2-0.2-0.2c-0.2-0.2,0.1,0.2,0.1,0.2c0-0.1-0.1-0.2-0.2-0.2
	c0-0.1-0.1-0.2-0.1-0.2c0,0,0.1,0.4,0,0c-0.1-0.4-0.2-0.8-0.3-1.3c0-0.1,0-0.3-0.1-0.4c0.1,0.4,0,0.1,0,0c0-0.3-0.1-0.6-0.1-0.9
	c-0.1-1.2-0.1-2.5-0.1-3.7c0.1-2.3,0.3-4.5,0.3-6.8C944.8,85.5,941,85.5,941,88L941,88z"/>
<path d="M992.1,85.5c1.8,4.7,5.3,8.9,10,11c0.9,0.4,2,0.3,2.6-0.7c2-3.5,3.3-7.3,4.9-10.9c0.4-0.9,0.3-2-0.7-2.6
	c-0.8-0.5-2.2-0.3-2.6,0.7c-1.6,3.7-2.9,7.4-4.9,10.9c0.9-0.2,1.7-0.4,2.6-0.7c-2-0.9-3.6-2.1-5.1-3.7c-1.3-1.4-2.5-3.4-3.2-5.1
	c-0.4-0.9-1.3-1.6-2.3-1.3C992.5,83.4,991.7,84.5,992.1,85.5L992.1,85.5z"/>
<path d="M657.3,105.9c1.8,3.4,5.5,5.5,9.4,4.9c4-0.6,6.2-4.2,6.2-8c-0.9,0.5-1.9,1.1-2.8,1.6c3.8,1.7,7.1,4.4,10.9,6.1
	c4.4,1.9,8.7,1.4,12.9-0.9c2.1-1.2,0.2-4.4-1.9-3.2c-3.4,1.9-6.8,2.1-10.2,0.4c-3.4-1.7-6.4-4-9.8-5.5c-1.2-0.6-2.8,0.1-2.8,1.6
	c0,1.2-0.2,2.4-1,3.2c-0.6,0.7-1.5,1-2.2,1.1c-2.3,0.3-4.3-1.1-5.4-3.1C659.4,101.9,656.1,103.8,657.3,105.9L657.3,105.9z"/>
<path d="M448.5,110.3c3.2,3.4,8.5,4.7,13,4c2-0.3,4.1-1.2,5.5-2.8c1.7-2,2-4.4,1.6-6.9c-1,0.6-2.1,1.2-3.1,1.8
	c7.3,6.7,16.8,15,27.3,10.2c0.9-0.4,1.1-1.7,0.7-2.6c-0.5-1-1.6-1.1-2.6-0.7c-8.6,3.9-17-4.3-22.8-9.6c-1.5-1.3-3.4,0-3.1,1.8
	c0.5,3.2-1.7,4.9-4.7,5.2c-3.2,0.3-6.9-0.7-9.1-3.1C449.5,105.9,446.9,108.5,448.5,110.3L448.5,110.3z"/>
<path d="M2030.9,50.9c-9.9,6.2-20.7,13.5-25.9,24.4c-1.5,3.1-2.4,6.3-2.6,9.7c-0.1,1.6,2.4,1.6,2.5,0c0.6-7.3,4.8-13.6,9.9-18.7
	c5.2-5.2,11.3-9.3,17.5-13.2C2033.5,52.2,2032.2,50,2030.9,50.9L2030.9,50.9z"/>
<path d="M1879.3,50.9c-5,3.2-9.3,7.4-12.3,12.5c-3,5-4.8,10.6-6.2,16.2c-0.4,1.6,2,2.2,2.4,0.7c1.3-5.3,3-10.6,5.8-15.3
	c2.8-4.9,6.8-8.9,11.6-11.9C1881.9,52.2,1880.6,50,1879.3,50.9L1879.3,50.9z"/>
<path d="M1948.9,93.6c-1.2-4-3.6-7.6-6.1-10.8c-2.6-3.4-5.5-6.5-8.2-9.7c-1-1.2-2.8,0.5-1.8,1.8c2.6,3.1,5.3,6,7.8,9.2
	c2.4,3.1,4.8,6.5,5.9,10.3C1947,95.8,1949.4,95.2,1948.9,93.6L1948.9,93.6z"/>
<path d="M1830.1,57.1c-7.7,8.2-11.2,18.8-11.3,29.9c0,1.6,2.5,1.6,2.5,0c0.1-10.5,3.3-20.4,10.6-28.1
	C1833,57.7,1831.2,55.9,1830.1,57.1L1830.1,57.1z"/>
<path d="M1759.6,73c6,3.7,10.7,10.4,12.4,17.3c0.4,1.6,2.8,0.9,2.4-0.7c-1.9-7.5-7-14.7-13.5-18.7C1759.5,70,1758.2,72.2,1759.6,73
	L1759.6,73z"/>
<path d="M1700.7,78.9c-3.6,2.6-6.8,5.8-9.1,9.7c-2.2,3.7-3.5,7.9-4.5,12.1c-0.4,1.6,2.1,2.2,2.4,0.7c0.9-3.9,2.1-7.8,4.1-11.2
	c2.1-3.6,5-6.6,8.3-9C1703.3,80.1,1702,77.9,1700.7,78.9L1700.7,78.9z"/>
<path d="M1659.7,92.3c3.5-8.9-2-18-7.1-25c-0.9-1.3-3.1,0-2.2,1.3c4.7,6.4,10.1,14.8,6.9,23C1656.7,93.1,1659.1,93.8,1659.7,92.3
	L1659.7,92.3z"/>
<path d="M1587,53.9c-4.7,3.1-8.4,7.2-11.3,12.1c-2.7,4.6-4.7,9.6-7.1,14.4c-0.7,1.4,1.4,2.7,2.2,1.3c2.4-4.5,4.2-9.3,6.8-13.7
	c2.7-4.7,6.2-8.8,10.7-11.8C1589.6,55.2,1588.4,53,1587,53.9L1587,53.9z"/>
<path d="M1526.7,74.6c2.3,5.1,6,9.4,7.9,14.7c0.5,1.5,2.9,0.9,2.4-0.7c-1.9-5.5-5.7-10-8.1-15.3c-0.3-0.6-1.2-0.8-1.7-0.4
	C1526.5,73.2,1526.4,74,1526.7,74.6L1526.7,74.6z"/>
<path d="M1389.5,58.9c-8.7,5.8-16.1,13.1-22.4,21.4c-1,1.3,1.2,2.5,2.2,1.3c6-8,13.1-15,21.5-20.6
	C1392.1,60.2,1390.9,58,1389.5,58.9L1389.5,58.9z"/>
<path d="M1336.7,48.9c-4.9,3.3-9.5,7.4-13.1,12.1c-3.3,4.4-6.1,10.6-2.3,15.6c1,1.3,3.1,0,2.2-1.3c-3.4-4.4-0.3-9.8,2.7-13.6
	c3.3-4.1,7.4-7.8,11.8-10.7C1339.2,50.1,1338,48,1336.7,48.9L1336.7,48.9z"/>
<path d="M1269.6,63.8c6.9,5.6,8.2,15.7,5.7,23.8c-0.5,1.5,1.9,2.2,2.4,0.7c2.8-8.8,1.2-20.1-6.3-26.2
	C1270.1,61.1,1268.3,62.8,1269.6,63.8L1269.6,63.8z"/>
<path d="M1226.2,70.2c4.7,1.7,8.5,5.9,11.2,9.9c2.5,3.8,5,8.9,3.9,13.6c-0.4,1.6,2,2.2,2.4,0.7c1.3-5.4-1.2-11.1-4.1-15.5
	c-3.1-4.6-7.4-9.1-12.7-11C1225.4,67.2,1224.7,69.6,1226.2,70.2L1226.2,70.2z"/>
<path d="M1131,79.3c1.1-6.6,4-12.6,6-19c0.5-1.5-1.9-2.2-2.4-0.7c-1.9,6.4-4.9,12.4-6,19C1128.4,80.2,1130.8,80.9,1131,79.3
	L1131,79.3z"/>
<path d="M1082.2,74.3c1.3-5.3,5.7-9.2,9.8-12.6c4.2-3.5,8.8-6.7,12-11.1c0.9-1.3-1.2-2.5-2.2-1.3c-6.4,8.8-19.2,13-22.1,24.3
	C1079.4,75.2,1081.8,75.8,1082.2,74.3L1082.2,74.3z"/>
<path d="M1994.3,101.6c-4.3,4.3-8.3,9.2-13.4,12.6c0.9,0.5,1.9,1.1,2.8,1.6c-0.5-3.7-0.8-7.5-0.4-11.3c0.3-3.7,1.4-7.3,3-10.7
	c1-2.2-2.2-4.1-3.2-1.9c-1.8,3.8-3,7.7-3.4,11.9c-0.4,4-0.1,8,0.4,12c0.2,1.3,1.5,2.5,2.8,1.6c5.4-3.7,9.6-8.6,14.2-13.2
	C1998.6,102.6,1996,99.9,1994.3,101.6L1994.3,101.6z"/>
<path d="M1949.9,104.5c1.4,4.3,3.4,8.6,2.8,13.2c0.8-0.6,1.6-1.2,2.4-1.8c-3.3-1.1-6.4-2.9-9-5.2c-0.8-0.7-1.9-0.7-2.6,0
	c-0.7,0.7-0.8,2,0,2.6c3.1,2.7,6.7,4.9,10.7,6.2c1.3,0.4,2.2-0.7,2.4-1.8c0.6-4.9-1.4-9.6-3-14.2c-0.3-1-1.3-1.6-2.3-1.3
	C1950.3,102.4,1949.6,103.5,1949.9,104.5L1949.9,104.5z"/>
<path d="M1912,115.5c-0.3,1.6-0.7,3.3-1.7,4.6c-1,1.3-2.5,1.8-4,2c0.8,0.4,1.5,0.9,2.3,1.3c-0.3-1.6-1.5-3-1.8-4.6
	c-0.3-1.4-2.2-1.8-3.1-0.8c-1.8,1.9-4.2,3.8-7,3.8c-2.6,0.1-4.2-1.9-5-4.3c-0.7-2.3-4.3-1.3-3.6,1c1.2,3.8,3.9,6.9,8.1,7.1
	c3.9,0.2,7.5-2.2,10.1-4.9c-1-0.3-2.1-0.6-3.1-0.8c0.3,1.6,1.5,3,1.8,4.6c0.2,1.1,1.3,1.4,2.3,1.3c4.8-0.7,7.6-4.6,8.4-9.2
	c0.2-1-0.3-2-1.3-2.3C1913.4,113.9,1912.2,114.5,1912,115.5L1912,115.5z"/>
<path d="M1861.3,85c-3.5,6.2-4.2,13.6-8,19.7c1-0.1,2-0.3,2.9-0.4c-3.3-2.9-3.9-7.2-3.4-11.4c0.1-1-0.9-1.9-1.9-1.9
	c-1.1,0-1.8,0.9-1.9,1.9c-0.5,5.1,0.5,10.5,4.5,14c0.9,0.8,2.3,0.7,2.9-0.4c3.8-6.1,4.4-13.5,8-19.7
	C1865.7,84.8,1862.5,82.9,1861.3,85L1861.3,85z"/>
<path d="M1821.7,93.6c-3.7,4.2-7.7,8.3-9.4,13.7c0.9-0.4,1.8-0.7,2.8-1.1c-0.1-0.1-0.2-0.2-0.4-0.2c-0.2-0.1,0.2,0.2-0.1-0.1
	c-0.2-0.2-0.4-0.4-0.6-0.6c-0.1-0.1-0.1-0.1,0,0c-0.1-0.1-0.2-0.2-0.2-0.3c-0.1-0.2-0.3-0.4-0.4-0.7c0-0.1-0.2-0.4,0-0.1
	c0-0.1-0.1-0.2-0.1-0.3c-0.1-0.3-0.2-0.5-0.2-0.8c-0.1-0.3-0.1-0.5-0.2-0.8c-0.1-0.4,0,0.1,0-0.1c0-0.1,0-0.3,0-0.4
	c-0.2-2.3,0-4.7,0.1-7c0-1-0.9-1.9-1.9-1.9c-1,0-1.8,0.9-1.9,1.9c-0.2,5.1-1.1,11.4,4,14.5c1.1,0.7,2.4,0,2.8-1.1
	c1.5-4.8,5.1-8.3,8.4-12.1c0.7-0.8,0.8-1.9,0-2.6C1823.7,93,1822.4,92.9,1821.7,93.6L1821.7,93.6z"/>
<path d="M1778.3,98.5c1.4,5.7,1,11.6,0.8,17.4c0.8-0.6,1.6-1.2,2.4-1.8c-4.8-0.7-9-3.6-12-7.4c-0.6-0.8-2-0.7-2.6,0
	c-0.8,0.8-0.6,1.9,0,2.6c3.3,4.2,8.3,7.6,13.7,8.3c1.2,0.2,2.3-0.5,2.4-1.8c0.3-6.1,0.6-12.4-0.9-18.4
	C1781.4,95.1,1777.7,96.1,1778.3,98.5L1778.3,98.5z"/>
<path d="M1683.6,107.5c-0.7,1.8-2.3,3.9-3.9,5.2c-0.6,0.5-1.5,1-2.1,1.1c-0.4,0-0.5,0-0.7-0.2c-0.4-0.3-0.7-0.7-0.9-1.2
	c-0.5-0.8-1.8-1.3-2.6-0.7c-1.6,1.1-3.3,2.5-5.2,3c-0.5,0.1-0.9,0.1-1,0.1c-0.4-0.1-0.5-0.2-0.8-0.5c-0.9-0.9-1.6-1.9-2.4-3
	c-1.2-1.7-2.5-3.3-4-4.7c-1.7-1.7-4.4,1-2.6,2.6c1.5,1.5,2.8,3.1,4.1,4.8c1,1.3,1.9,2.7,3.3,3.6c3.6,2.4,7.8-0.7,10.7-2.7
	c-0.9-0.2-1.7-0.4-2.6-0.7c1.8,3.3,5.3,4.1,8.4,2c2.8-1.8,4.9-4.7,6.2-7.8c0.4-0.9-0.4-2-1.3-2.3
	C1684.8,105.8,1684,106.5,1683.6,107.5L1683.6,107.5z"/>
<path d="M1573.1,92c-1.3,2.4-2.5,4.8-3.9,7.1c-0.2,0.4-0.5,0.8-0.8,1.2c-0.1,0.2-0.2,0.3-0.3,0.5c0,0.1-0.1,0.1-0.1,0.2
	c-0.2,0.3,0.3-0.3,0,0c-0.2,0.2-0.4,0.4-0.6,0.6c-0.1,0.1-0.2,0.2-0.3,0.3c-0.2,0.2,0.2-0.2,0.2-0.2c0,0-0.2,0.1-0.2,0.1
	c-0.1,0-0.2,0.1-0.2,0.1c0.3-0.3,0.5-0.1,0.2-0.1c-0.2,0,0.6,0,0.2,0c-0.3,0,0.6,0.1,0.2,0c-0.3-0.1,0.5,0.3,0.2,0.1
	c-0.3-0.2,0.2,0.2,0.1,0.1c-0.1-0.1-0.1-0.1-0.2-0.2c-0.3-0.3,0.2,0.3,0,0c-0.3-0.5-0.6-1-0.8-1.5c-0.1-0.2-0.2-0.4,0-0.1
	c-0.1-0.2-0.1-0.3-0.2-0.5c-0.2-0.4-0.3-0.9-0.5-1.3c-0.9-2.4-1.6-4.7-2.5-7.1c-0.3-0.9-1.3-1.6-2.3-1.3c-0.9,0.3-1.7,1.3-1.3,2.3
	c0.8,2.3,1.6,4.6,2.5,7c0.5,1.5,1.1,3.1,2,4.4c0.9,1.3,2.2,2.1,3.8,1.6c1.6-0.5,2.7-2.1,3.6-3.4c1.7-2.6,3.2-5.4,4.6-8.2
	c0.5-0.9,0.2-2-0.7-2.6C1574.8,90.8,1573.5,91.1,1573.1,92L1573.1,92z"/>
<path d="M1541.1,104c-1.1,1.8-2,3.8-3.2,5.6c-0.3,0.4-0.5,0.8-0.8,1.2c0.2-0.3,0,0,0,0c-0.1,0.1-0.2,0.2-0.2,0.3
	c-0.2,0.2-0.3,0.4-0.5,0.5c-0.2,0.2-0.4,0.3-0.5,0.5c-0.1,0.1-0.2,0.1-0.2,0.2c0.3-0.3,0,0-0.1,0.1c-0.2,0.1-0.4,0.2-0.6,0.4
	c-0.1,0.1-0.2,0.1-0.3,0.2c-0.1,0-0.5,0.2-0.1,0.1c0.7,0.3,1.4,0.6,2.1,0.9c-0.1-0.1-0.1-0.2-0.1-0.3c0.1,0.2,0.1,0.2,0-0.1
	c-0.1-0.2-0.1-0.3-0.2-0.5c-0.1-0.4-0.2-0.8-0.3-1.2c-0.1-0.2-0.1-0.5-0.1-0.7c-0.1-0.4,0,0.2,0-0.2c-0.1-0.5-0.1-0.9-0.1-1.4
	c-0.1-1.8,0-3.7,0-5.6c0-1-0.9-1.9-1.9-1.9c-1,0-1.9,0.8-1.9,1.9c-0.1,4-0.3,8.1,1.4,11.9c0.3,0.7,1.4,1.2,2.1,0.9
	c2.4-1,4.1-2.6,5.5-4.8c1.3-1.9,2.2-4.1,3.4-6c0.5-0.8,0.2-2.1-0.7-2.6C1542.8,102.9,1541.7,103.1,1541.1,104L1541.1,104z"/>
<path d="M1490.1,102.5c0.4,2.4-2.1,4.5-4.1,5.6c0.8,0.1,1.5,0.2,2.3,0.3c-0.9-1-2.1-1.7-3-2.7c-0.7-0.7-2-0.7-2.6,0
	c-1,1-2.2,2.1-3.4,2.5c-0.7,0.2-0.6,0.2-1.3,0.2c-0.2,0,0.3,0.1-0.1,0c-0.1,0-0.2-0.1-0.3-0.1c-0.2-0.1-0.1-0.1,0,0
	c-0.1-0.1-0.2-0.1-0.3-0.2c-0.2-0.1,0.2,0.2,0,0c-0.1-0.1-0.2-0.1-0.2-0.2c-0.1-0.1-0.2-0.2-0.2-0.2c-0.1-0.1,0.1,0.2-0.1-0.1
	c-0.1-0.2-0.2-0.4-0.4-0.6c0-0.1-0.1-0.2,0-0.1c-0.1-0.1-0.1-0.3-0.2-0.5c-0.4-1.2-0.4-2.1-0.3-3.4c0.1-1-0.9-1.9-1.9-1.9
	c-1.1,0-1.8,0.9-1.9,1.9c-0.3,3,0.6,6.8,3.4,8.4c3.5,2.1,7.4-0.6,9.8-3.1c-0.9,0-1.8,0-2.6,0c0.9,1,2.1,1.7,3,2.7
	c0.5,0.6,1.6,0.7,2.3,0.3c3.6-2,6.6-5.5,5.8-9.8c-0.2-1-1.4-1.6-2.3-1.3C1490.3,100.4,1489.9,101.5,1490.1,102.5L1490.1,102.5z"/>
<path d="M1371.9,89.6c-1.6,1.5-3.3,3-5,4.5c-0.9,0.8-1.9,1.6-2.8,2.3c-0.2,0.2,0.3-0.3-0.1,0.1c-0.1,0.1-0.3,0.2-0.4,0.3
	c-0.2,0.2-0.4,0.3-0.6,0.5c-0.5,0.4-1,0.7-1.5,1c-0.8,0.6-1.7,1.1-2.6,1.5c-0.1,0.1-0.9,0.4-0.3,0.2c-0.2,0.1-0.4,0.1-0.5,0.2
	c-0.4,0.1-0.8,0.2-1.2,0.3c0.4-0.1,0.3,0-0.1,0c-0.1,0-0.3,0-0.4,0c-0.3,0,0.4,0.2,0.2,0c-0.1,0-0.2,0-0.2-0.1c-0.4-0.2,0.4,0.3,0,0
	c-0.4-0.2,0.4,0.3,0,0c-0.1,0-0.1-0.1-0.2-0.2c-0.2-0.2,0.2,0.4,0.1,0.1c0-0.1-0.2-0.3-0.2-0.4c0.3,0.5,0,0-0.1-0.2
	c0-0.2-0.1-1-0.1-0.4c0-0.3,0-0.6-0.1-0.8c0-0.7,0-1.4,0.1-2c0,0,0.1-0.6,0-0.3c0-0.3,0.1-0.6,0.1-0.8c0.1-0.5,0.2-0.9,0.3-1.4
	c0.2-1.2,0.5-2.3,0.8-3.4c0.6-2.3-3-3.3-3.6-1c-1,3.8-4,14.2,2.8,14.7c2,0.2,4-0.8,5.7-1.8c2.3-1.3,4.4-2.9,6.4-4.6
	c2.1-1.8,4.2-3.6,6.2-5.6C1376.3,90.6,1373.6,88,1371.9,89.6L1371.9,89.6z"/>
<path d="M1321.7,82c-1.7,3.4-1.8,7.2-2.6,10.9c-0.2,0.8-0.4,1.7-0.8,2.5c0.1-0.3-0.1,0.2-0.1,0.2c-0.1,0.2-0.2,0.4-0.3,0.6
	c-0.1,0.1-0.2,0.3-0.3,0.4c-0.1,0.1-0.1,0.2-0.2,0.3c0.1-0.2,0.1-0.1,0,0c-0.3,0.3-0.5,0.6-0.9,0.8c0.3-0.2-0.3,0.2-0.3,0.2
	c-0.2,0.1-0.3,0.2-0.5,0.3c-0.7,0.4-1.8,0.6-2.8,0.8c0.8,0.4,1.5,0.9,2.3,1.3c-0.8-2.3-2.2-4.2-3.4-6.3c-1.1-1.7-2-3.6-1.7-5.7
	c0.1-1-0.2-2-1.3-2.3c-0.9-0.2-2.2,0.3-2.3,1.3c-0.4,2.8,0.2,5.3,1.6,7.7c1.2,2.1,2.7,3.9,3.5,6.2c0.4,1,1.2,1.5,2.3,1.3
	c2.2-0.3,4.3-1.2,5.8-2.7c1.4-1.4,2.2-3.3,2.7-5.2c0.5-1.8,0.7-3.7,1-5.6c0.2-1,0.3-1.9,0.6-2.8c0.2-0.9,0.5-1.8,0.8-2.4
	c0.4-0.9,0.2-2-0.7-2.6C1323.4,80.9,1322.2,81.1,1321.7,82L1321.7,82z"/>
<path d="M1275.6,91.5c-0.5,3.2-1.1,6.6-2.7,9.4c-0.4,0.7-0.6,1.1-1.1,1.5c-0.2,0.2-0.2,0.2-0.6,0.4c0.4-0.2-0.6,0.1-0.2,0.1
	c-0.6,0.1-0.9-0.1-1.6-0.5c-0.9-0.6-1.7-1.5-2.4-2.4c-0.6-0.7-2-0.7-2.6,0c-0.8,1-1.9,2.1-3.3,2.2c-1.2,0.1-2.4-0.6-3.3-1.3
	c-2.6-1.7-4.7-4-7.4-5.6c-2.1-1.2-4,2-1.9,3.2c3.1,1.8,5.5,4.7,8.7,6.3c3.7,1.9,7.2,0.8,9.9-2.3c-0.9,0-1.8,0-2.6,0
	c1.5,1.9,3.6,3.9,6.2,4c2.1,0.1,3.7-1.1,4.9-2.7c2.3-3.2,3.1-7.6,3.8-11.4c0.2-1-0.3-2-1.3-2.3C1277.1,89.9,1275.8,90.5,1275.6,91.5
	L1275.6,91.5z"/>
<path d="M1130.9,88c0,1.9,0.2,3.9,0.3,5.8c0,1.2,0.1,2.5,0,3.7c0,0.6-0.1,1.1-0.1,1.7c0,0.1,0,0.3,0,0.4c0.1-0.5,0,0,0,0.1
	c0,0.3-0.1,0.5-0.2,0.8c0,0.2-0.1,0.4-0.2,0.6c-0.1,0.5,0.2-0.3-0.1,0.2c0,0.1-0.1,0.2-0.1,0.3c0,0.1-0.3,0.1,0.1-0.2
	c-0.1,0-0.1,0.1-0.2,0.2c-0.2,0.2,0.4-0.3,0.1-0.1c-0.1,0.1-0.3,0.1-0.4,0.2c-0.4,0.2,0.2-0.1,0,0c-0.2,0.1-0.9,0.1-0.3,0.1
	c-0.2,0-0.4,0-0.6,0c0.5,0,0.2,0.1,0.1,0c-0.1,0-0.3-0.1-0.4-0.1c-0.4-0.1,0.2,0.2,0.1,0c-0.1-0.1-0.2-0.1-0.3-0.1
	c-0.2-0.1-0.6-0.4-0.2-0.1c-0.4-0.4-0.8-0.7-1.1-1.1c-0.2-0.2,0.3,0.4,0,0c-0.1-0.1-0.2-0.2-0.3-0.4c-0.1-0.2-0.3-0.4-0.4-0.7
	c-0.3-0.5-0.6-1-0.8-1.6c-0.1-0.3-0.3-0.6-0.4-0.9c-0.2-0.5,0.1,0.3-0.1-0.2c-0.1-0.1-0.1-0.3-0.2-0.5c-0.2-0.6-0.4-1.2-0.6-1.8
	c-0.3-1-0.6-2-0.9-3c-0.6-2.3-4.2-1.3-3.6,1c0.6,2.3,1.4,4.5,2.4,6.7c1,2.2,2.4,4.7,4.7,5.8c2.3,1.2,5.6,0.6,6.9-1.8
	c1.1-2.2,1.1-5.1,1.1-7.5c0-2.6-0.3-5.1-0.3-7.7C1134.7,85.5,1130.9,85.5,1130.9,88L1130.9,88z"/>
<path d="M1080.1,84.5c-0.7,1.8-1.8,3.7-3.2,5.1c-1.5,1.6-3,2.8-5,3.7c0.9,0.2,1.7,0.4,2.6,0.7c-2-3.5-3.3-7.3-4.9-10.9
	c-0.4-0.9-1.8-1.1-2.6-0.7c-1,0.6-1.1,1.6-0.7,2.6c1.6,3.7,2.9,7.4,4.9,10.9c0.5,0.9,1.7,1.1,2.6,0.7c4.6-2.1,8.2-6.3,9.9-11
	c0.4-0.9-0.4-2.1-1.3-2.3C1081.4,82.9,1080.5,83.5,1080.1,84.5L1080.1,84.5z"/>
<path d="M1414.5,104c-1.1,2.1-3.1,3.4-5.4,3.1c-0.7-0.1-1.6-0.5-2.2-1.1c-0.8-0.9-1-2.1-1-3.2c0-1.5-1.6-2.2-2.8-1.6
	c-3.4,1.6-6.4,3.9-9.8,5.5c-3.5,1.7-6.8,1.5-10.2-0.4c-2.1-1.2-4,2.1-1.9,3.2c4.1,2.3,8.5,2.7,12.8,0.9c3.8-1.6,7.1-4.3,10.9-6.1
	c-0.9-0.5-1.9-1.1-2.8-1.6c0,3.9,2.2,7.4,6.2,8c3.8,0.6,7.6-1.5,9.4-4.9C1418.8,103.8,1415.6,101.9,1414.5,104L1414.5,104z"/>
<path d="M1623.2,107.6c-2.2,2.4-5.9,3.4-9.1,3.1c-2.9-0.3-5.2-1.9-4.7-5.2c0.3-1.8-1.7-3.2-3.1-1.8c-5.8,5.3-14.2,13.5-22.7,9.6
	c-0.9-0.4-2-0.3-2.6,0.7c-0.5,0.8-0.2,2.1,0.7,2.6c10.5,4.8,20-3.5,27.3-10.2c-1-0.6-2.1-1.2-3.1-1.8c-0.4,2.5-0.1,4.9,1.5,6.9
	c1.4,1.6,3.5,2.6,5.6,2.9c4.5,0.7,9.8-0.6,12.9-4C1627.5,108.5,1624.9,105.9,1623.2,107.6L1623.2,107.6z"/>
</svg>
